<svg width="34" height="34" xmlns="http://www.w3.org/2000/svg" xmlns:xlink="http://www.w3.org/1999/xlink"><defs><path id="path-1" d="M0 .09v9.528h15.153V.089z"/></defs><g id="10-Landing-formulario-leads" stroke="none" stroke-width="1" fill="none" fill-rule="evenodd" transform="translate(-319 -334)"><g id="Group-6" transform="translate(320 335)"><circle id="Oval-2" stroke="#FFF" cx="16" cy="16" r="16"/><g id="Group-10-Copy-2" transform="translate(6.919 5.19)"><g id="Page-1-Copy-2" transform="translate(1.73 1.73)"><g id="Group-8"><path d="M10.368 5.28v-.92c0-.324-.36-.59-.799-.59h-.797c-.437 0-.797.266-.797.59v.92" id="Fill-1" fill="#FFF"/><path d="M13.255 1.508l-2.392 2.263" id="Stroke-3" stroke="#FFF" stroke-width=".772"/><path d="M5.28 1.508l2.393 2.263" id="Stroke-5" stroke="#FFF" stroke-width=".772"/><path d="M9.268 0l.017 3.017" id="Stroke-7" stroke="#FFF" stroke-width=".772"/><g id="Group-11" transform="translate(0 5.644)"><mask id="mask-2" fill="#fff"><use xlink:href="#path-1"/></mask><path d="M9.643 4.173V1.45h.688l2.756 2.722H9.643zm1.722 4.424a1.026 1.026 0 01-1.034-1.022c0-.565.462-1.02 1.034-1.02.572 0 1.033.455 1.033 1.02 0 .566-.461 1.022-1.033 1.022zM4.763 3.259h-.925v.914h-.89v-.914h-.925v-.88h.925v-.914h.89v.913h.925v.88zm-1.32 5.338a1.026 1.026 0 01-1.032-1.022c0-.565.461-1.02 1.033-1.02.571 0 1.033.455 1.033 1.02 0 .566-.462 1.022-1.033 1.022zM11.022.089H1.378A1.37 1.37 0 000 1.451v6.124h1.378c0 1.124.923 2.043 2.066 2.043A2.055 2.055 0 005.51 7.575H9.3c0 1.124.922 2.043 2.066 2.043a2.055 2.055 0 002.066-2.043h1.722V4.173L11.02.089z" id="Fill-9" fill="#FFF" mask="url(#mask-2)"/></g></g></g></g></g></g></svg>