<svg width="95" height="95" xmlns="http://www.w3.org/2000/svg" xmlns:xlink="http://www.w3.org/1999/xlink"><defs><path id="path-1" d="M0 .498h51.45V44H0z"/></defs><g id="10-Landing-formulario-leads" stroke="none" stroke-width="1" fill="none" fill-rule="evenodd" transform="translate(-304 -1385)"><g id="Group-2" transform="translate(305 1386)"><g id="Page-1" transform="translate(21 24)"><g id="Group-3" transform="translate(0 .502)"><mask id="mask-2" fill="#fff"><use xlink:href="#path-1"/></mask><path d="M48.568 34.375H2.883a.581.581 0 01-.58-.582V30.92h46.845v2.873a.582.582 0 01-.58.582zm-17.054 7.321H19.936a13.71 13.71 0 002.336-5.017h6.908a13.716 13.716 0 002.334 5.017zM2.883 2.802h45.685c.319 0 .58.261.58.58v2.875H2.304V3.382c0-.319.26-.58.579-.58zm-.58 25.815h46.845V8.561H2.304v20.056zM48.569.498H2.883A2.887 2.887 0 000 3.382v30.411a2.888 2.888 0 002.883 2.886H19.89a11.47 11.47 0 01-2.083 4.007l-1.16 1.44A1.152 1.152 0 0017.544 44h16.363a1.153 1.153 0 00.897-1.875l-1.16-1.44a11.459 11.459 0 01-2.082-4.007h17.006a2.887 2.887 0 002.883-2.886V3.383A2.887 2.887 0 0048.568.497z" id="Fill-1" fill="#4C4C4C" mask="url(#mask-2)"/></g><path id="Stroke-4" stroke="#4C4C4C" stroke-width="2" stroke-linecap="round" d="M6.725 20.556h8l5.167-5.667 6.833 6.585 5.417-4.854 2.371 2.936h9.212"/></g><circle id="Oval-2" stroke="#4C4C4C" stroke-width="2" cx="46.5" cy="46.5" r="46.5"/></g></g></svg>