<svg width="34" height="34" xmlns="http://www.w3.org/2000/svg"><g id="10-Landing-formulario-leads" stroke="none" stroke-width="1" fill="none" fill-rule="evenodd" transform="translate(-319 -420)"><g id="Group-6-Copy-2" transform="translate(320 421)"><circle id="Oval-2" stroke="#FFF" cx="16" cy="16" r="16"/><g id="ic_person-copy" transform="translate(9.514 7.784)" fill="#FFF"><path d="M4.216 2.6a2.233 2.233 0 01-.046-.452C4.17.963 5.1 0 6.248 0c1.147 0 2.077.963 2.077 2.148 0 .152-.015.3-.044.443A3.628 3.628 0 019.73 5.51c0 1.986-1.555 3.594-3.475 3.594-1.92 0-3.475-1.608-3.475-3.594 0-1.198.566-2.258 1.436-2.911zm2.039.755c.64 0 1.158-.537 1.158-1.198 0-.662-.518-1.199-1.158-1.199-.64 0-1.158.537-1.158 1.199 0 .661.518 1.198 1.158 1.198zm.231 7.18C4.322 10.536 0 11.66 0 13.89v1.678h12.973V13.89c0-2.23-4.322-3.354-6.487-3.354z" id="Icon"/></g></g></g></svg>