<svg width="30" height="30" xmlns="http://www.w3.org/2000/svg"><g id="Footer_emi" stroke="none" stroke-width="1" fill="none" fill-rule="evenodd" transform="translate(-1099 -47)"><path d="M1114 77c-8.284 0-15-6.716-15-15 0-8.284 6.716-15 15-15 8.284 0 15 6.716 15 15 0 8.284-6.716 15-15 15zm-1.213-8h2.573v-6.57h2.525l.115-2.364h-2.64v-1.727c0-.653.14-1.046 1.017-1.046.81 0 1.553.007 1.553.007l.058-2.208s-.729-.092-1.713-.092c-2.433 0-3.488 1.458-3.488 3.045v2.02H1111v2.366h1.787V69z" id="Combined-Shape" fill="#FFF"/></g></svg>