<svg width="95" height="95" xmlns="http://www.w3.org/2000/svg" xmlns:xlink="http://www.w3.org/1999/xlink"><defs><path id="path-1" d="M0 .244h45.671V50H.001z"/></defs><g id="10-Landing-formulario-leads" stroke="none" stroke-width="1" fill="none" fill-rule="evenodd" transform="translate(-1042 -1388)"><g id="Group-7" transform="translate(1043 1389)"><g id="Page-1" transform="translate(29 21)"><g id="Group-3" transform="translate(0 .756)"><mask id="mask-2" fill="#fff"><use xlink:href="#path-1"/></mask><path d="M40.131 20.226c-1.83 0-3.32-1.49-3.32-3.32a3.326 3.326 0 013.32-3.323 3.325 3.325 0 013.322 3.322 3.325 3.325 0 01-3.322 3.321zm-6.775-2.637a.686.686 0 010-1.37h1.284a5.377 5.377 0 00-.047.685c0 .232.018.46.047.685h-1.284zM6.52 32.965l-.142-.727a8.719 8.719 0 002.372.335 8.73 8.73 0 002.372-.335l-.14.72c-.454 2.26-1.178 2.43-2.232 2.43-1.068 0-1.852-.173-2.23-2.423zm-4.298-9.14v-.284a8.718 8.718 0 006.526 2.944 8.72 8.72 0 006.531-2.947v.287a6.538 6.538 0 01-6.529 6.531 6.537 6.537 0 01-6.528-6.53zM3.885 2.461c.461 0 .837.375.837.836a.836.836 0 11-.837-.836zm9.083.836a.838.838 0 011.673 0 .837.837 0 01-1.673 0zm27.163 8.068a5.536 5.536 0 00-4.708 2.636h-2.067a2.902 2.902 0 00-2.694 1.836c-4.39.412-7.839 4.117-7.839 8.612v16.897a6.443 6.443 0 01-6.436 6.436 6.443 6.443 0 01-6.435-6.436V37.48c1.716-.386 2.724-1.689 3.205-4.09l.447-2.293a8.745 8.745 0 003.892-7.27V9.435A9.147 9.147 0 0016.34 5a3.037 3.037 0 00.521-1.703A3.057 3.057 0 0013.805.244a3.057 3.057 0 00-3.054 3.053 3.058 3.058 0 003.054 3.055c.242 0 .475-.03.702-.085.506.982.772 2.068.772 3.168v8.301a6.538 6.538 0 01-6.53 6.53c-3.58 0-6.492-2.895-6.527-6.467V9.435c0-1.127.291-2.226.84-3.199.26.074.537.116.823.116A3.06 3.06 0 006.94 3.297 3.058 3.058 0 003.885.244 3.057 3.057 0 00.83 3.297c0 .582.167 1.125.452 1.59A8.716 8.716 0 00.003 9.434v8.268c0 .01-.003.02-.003.032l.003.064v6.025a8.746 8.746 0 003.894 7.272l.441 2.264c.416 2.48 1.507 3.822 3.397 4.157v3.83c0 4.771 3.88 8.652 8.652 8.652 4.772 0 8.655-3.88 8.655-8.653V24.45c0-3.285 2.475-5.997 5.656-6.384a2.906 2.906 0 002.658 1.742h2.067a5.535 5.535 0 004.708 2.637 5.546 5.546 0 005.54-5.54 5.546 5.546 0 00-5.54-5.539z" id="Fill-1" fill="#4C4C4C" mask="url(#mask-2)"/></g><path d="M40.13 16.013a1.647 1.647 0 110 3.295 1.647 1.647 0 110-3.295" id="Fill-4" fill="#4C4C4C"/></g><circle id="Oval-2" stroke="#4C4C4C" stroke-width="2" cx="46.5" cy="46.5" r="46.5"/></g></g></svg>