<svg width="95" height="95" xmlns="http://www.w3.org/2000/svg" xmlns:xlink="http://www.w3.org/1999/xlink"><defs><path id="path-1" d="M0 0h47.098v55.462H0z"/></defs><g id="10-Landing-formulario-leads" stroke="none" stroke-width="1" fill="none" fill-rule="evenodd" transform="translate(-550 -1385)"><g id="Group-5" transform="translate(551 1386)"><circle id="Oval-2" stroke="#4C4C4C" stroke-width="2" cx="46.5" cy="46.5" r="46.5"/><g id="Page-1" transform="translate(22 21)"><mask id="mask-2" fill="#fff"><use xlink:href="#path-1"/></mask><path d="M25.652 42.406l-.005-.001-.005.001a21.812 21.812 0 01-15.519-6.431c-8.24-8.239-8.545-21.45-.925-30.062l2.19 2.188c-6.42 7.405-6.118 18.656.917 25.691a18.747 18.747 0 0013.343 5.527c4.586 0 8.92-1.63 12.35-4.609l2.187 2.188a21.784 21.784 0 01-14.533 5.508zm16.12-21.296a1.345 1.345 0 00-1.127.372l-.993.979-.53-.576-1.997-4.683a1.352 1.352 0 00-1.567-.783l-2.537.622-.779-1.126.682-3.687 5.601-1.517a16.116 16.116 0 013.247 10.399zM26.92 4.339c1.562.122 3.08.464 4.514 1.014L27.471 6.54l-.55-2.201zm-.829 27.529l-.778.065a260.643 260.643 0 01-1.084-6.216 1.35 1.35 0 00-.557-.889l-1.142-.801-1.379-1.631 1.93-1.23 3.756.657.546 1.807-1.463 3.532c-.08.192-.115.4-.1.607l.271 4.099zm-10.586-8.695c.117.043.242.07.371.08h.015l2.57.151 2.116 2.503c.075.089.161.167.256.233l.82.576c.115.695.324 1.939.541 3.183.164.942.333 1.883.472 2.588.226 1.157.442 2.256 1.511 2.256.077 0 .16-.005.245-.017.232-.024 3.22-.273 3.22-.273a1.355 1.355 0 001.238-1.439l-.34-5.108 1.528-3.687c.12-.29.136-.612.045-.911l-.93-3.066a1.35 1.35 0 00-1.06-.94l-5.094-.891a1.342 1.342 0 00-.96.191l-3.309 2.111-.453-.028 1.15-1.868a1.38 1.38 0 00.14-.311l1.952-6.369a1.353 1.353 0 00-.225-1.226l-2.612-3.359a1.353 1.353 0 00-.739-.482l-1.013-.254a15.987 15.987 0 017.175-2.459l1.057 4.213a1.346 1.346 0 001.312 1.024c.13 0 .26-.018.387-.057l7.566-2.266a1.37 1.37 0 00.33-.156 16.26 16.26 0 011.701 1.345l-5.092 1.38a1.349 1.349 0 00-.976 1.059l-.94 5.076c-.066.354.012.72.217 1.016l1.63 2.354a1.35 1.35 0 001.434.545l2.326-.571 1.637 3.842c.061.142.146.273.25.387l1.638 1.775a1.347 1.347 0 00.994.436c.355 0 .696-.14.95-.39l.666-.657a16.058 16.058 0 01-4.145 7.168 16.061 16.061 0 01-11.429 4.734 16.062 16.062 0 01-11.43-4.734c-3.006-3.007-4.56-6.912-4.699-10.86l5.986 2.153zM14.217 9.02l.001-.001.001-.002c.028-.027.057-.051.083-.079l2.56.643 1.894 2.435-1.695 5.532-1.667 2.711-5.728-2.06c.468-3.359 1.973-6.601 4.551-9.179zM39.91 32.797c6.418-7.403 6.115-18.654-.919-25.69a18.75 18.75 0 00-13.343-5.526c-.13 0-.26.006-.39.009a1.495 1.495 0 00-.242.005A18.712 18.712 0 0013.3 6.187L5.507-1.604A1.353 1.353 0 003.594.309l3.687 3.686c-8.674 9.671-8.365 24.598.93 33.893 4.336 4.337 10.005 6.857 16.084 7.184v5.685h-7.893a1.352 1.352 0 000 2.705h18.49a1.353 1.353 0 000-2.705H27v-5.685a24.442 24.442 0 0015.102-6.256l3.687 3.687a1.352 1.352 0 101.913-1.912l-7.793-7.794z" id="Fill-1" fill="#4C4C4C" mask="url(#mask-2)"/></g></g></g></svg>