<svg width="34" height="34" xmlns="http://www.w3.org/2000/svg" xmlns:xlink="http://www.w3.org/1999/xlink"><defs><path id="path-1" d="M0 0h13.838v13.838H0z"/></defs><g id="10-Landing-formulario-leads" stroke="none" stroke-width="1" fill="none" fill-rule="evenodd" transform="translate(-318 -377)"><g id="Group-6-Copy" transform="translate(319 378)"><circle id="Oval-2" stroke="#FFF" cx="16" cy="16" r="16"/><g id="Page-1" transform="translate(9.514 9.514)"><mask id="mask-2" fill="#fff"><use xlink:href="#path-1"/></mask><path d="M10.054 8.702c-.355-.123-.762-.028-.996.21l-1.586 1.129c-1.83-.968-2.994-2.126-3.95-3.936L4.89 4.687c.27-.27.366-.663.25-1.03-.35-1.06-.527-1.952-.527-2.648A1.01 1.01 0 003.603 0H1.01A1.01 1.01 0 000 1.009c0 6.954 5.875 12.829 12.829 12.829a1.01 1.01 0 001.009-1.01v-2.594a1.01 1.01 0 00-1.01-1.009c-.878 0-2.045-.282-2.774-.523z" id="Fill-1" fill="#FFF" mask="url(#mask-2)"/></g></g></g></svg>