<svg width="14" height="11" xmlns="http://www.w3.org/2000/svg"><g id="01-Home_emi" stroke="none" stroke-width="1" fill="none" fill-rule="evenodd" transform="translate(-453 -502)"><path d="M465.35 503.74a2.804 2.804 0 001.263-1.537 5.87 5.87 0 01-1.824.674 2.915 2.915 0 00-2.096-.877c-1.586 0-2.873 1.243-2.873 2.777 0 .218.026.43.075.633a8.25 8.25 0 01-5.92-2.902c-.248.41-.39.887-.39 1.396 0 .964.508 1.814 1.279 2.312a2.936 2.936 0 01-1.301-.348v.035c0 1.346.99 2.468 2.303 2.723a2.968 2.968 0 01-1.297.048c.366 1.103 1.426 1.906 2.683 1.928a5.89 5.89 0 01-3.567 1.19 6.04 6.04 0 01-.685-.04 8.334 8.334 0 004.403 1.248c5.283 0 8.172-4.231 8.172-7.901 0-.12-.003-.24-.008-.36a5.733 5.733 0 001.433-1.437 5.89 5.89 0 01-1.65.437z" id="icon" fill="#FFF"/></g></svg>