<svg width="30" height="30" xmlns="http://www.w3.org/2000/svg"><g id="Footer_emi" stroke="none" stroke-width="1" fill="none" fill-rule="evenodd" transform="translate(-1134 -47)"><path d="M1149 77c-8.284 0-15-6.716-15-15 0-8.284 6.716-15 15-15 8.284 0 15 6.716 15 15 0 8.284-6.716 15-15 15zm6.01-16.52c.076-1.694-.554-2.56-1.89-2.6-1.801-.057-3.022.959-3.66 3.051.33-.141.65-.213.962-.213.66 0 .952.372.875 1.113-.04.45-.331 1.104-.875 1.963-.546.86-.955 1.29-1.226 1.29-.35 0-.672-.662-.964-1.988-.098-.388-.272-1.381-.525-2.978-.234-1.48-.856-2.172-1.868-2.075-.428.04-1.07.429-1.927 1.168-.622.564-1.255 1.128-1.897 1.691l.612.788c.583-.408.923-.612 1.02-.612.447 0 .864.7 1.253 2.098l1.049 3.847c.524 1.4 1.165 2.098 1.923 2.098 1.223 0 2.718-1.148 4.486-3.445 1.71-2.2 2.593-3.932 2.651-5.197z" id="Combined-Shape" fill="#FFF"/></g></svg>