<svg width="95" height="95" xmlns="http://www.w3.org/2000/svg" xmlns:xlink="http://www.w3.org/1999/xlink"><defs><path id="path-1" d="M0 .418h56.823V37H0z"/></defs><g id="10-Landing-formulario-leads" stroke="none" stroke-width="1" fill="none" fill-rule="evenodd" transform="translate(-796 -1388)"><g id="Group-6" transform="translate(797 1389)"><circle id="Oval-2" stroke="#4C4C4C" stroke-width="2" cx="46.5" cy="46.5" r="46.5"/><g id="Page-1" transform="translate(20 28)"><g id="Group-3" transform="translate(0 .582)"><mask id="mask-2" fill="#fff"><use xlink:href="#path-1"/></mask><path d="M35.14 7.458h2.385l-.315-1.26h-1.755l-.315 1.26zm.562 9.681h10.013l-2.482-3.901h-7.531v3.901zm-33.442.88h27.662V2.678H2.26v15.341zm0 4.4h27.662v-2.14H2.26v2.14zm13.959 7.921h13.703v-5.66H2.26v5.66h3.143a5.51 5.51 0 015.408-4.401 5.51 5.51 0 015.408 4.401zm35.202 0h3.143v-8.615l-6.973-2.326H34.573a1.13 1.13 0 01-1.13-1.13v-6.161a1.13 1.13 0 011.13-1.129h7.22l-.8-1.26h-8.811V30.34h8.423a5.51 5.51 0 015.408-4.401 5.509 5.509 0 015.408 4.401zm-40.61-2.141A3.274 3.274 0 007.54 31.47a3.274 3.274 0 003.27 3.27 3.273 3.273 0 003.27-3.27 3.273 3.273 0 00-3.27-3.271zm35.202 0a3.273 3.273 0 00-3.27 3.271 3.273 3.273 0 003.27 3.27 3.275 3.275 0 003.27-3.268 3.276 3.276 0 00-3.27-3.273zm0 8.801a5.51 5.51 0 01-5.408-4.4H16.219A5.51 5.51 0 0110.81 37a5.51 5.51 0 01-5.408-4.4H1.13C.507 32.6 0 32.093 0 31.47V1.548C0 .925.507.418 1.13.418h29.922c.623 0 1.13.507 1.13 1.13v5.91h.628l.667-2.663a1.128 1.128 0 011.096-.857h3.52c.52 0 .97.353 1.096.857l.667 2.663h1.757c.388 0 .745.196.953.524l5.944 9.342 7.54 2.514c.463.153.774.584.774 1.071V31.47c0 .623-.507 1.13-1.13 1.13H51.42a5.509 5.509 0 01-5.408 4.4z" id="Fill-1" fill="#4C4C4C" mask="url(#mask-2)"/></g><path d="M12.57 10.05h1.761a.88.88 0 00.88-.88V7.41h1.76v1.76c0 .487.394.88.88.88h1.76v1.76h-1.76a.88.88 0 00-.88.88v1.76h-1.76v-1.76a.88.88 0 00-.88-.88h-1.76v-1.76zm.881 3.52v1.76c0 .488.393.88.88.88h3.52a.88.88 0 00.88-.88v-1.76h1.76a.88.88 0 00.88-.88V9.17a.88.88 0 00-.88-.88h-1.76V6.53a.88.88 0 00-.88-.88h-3.52a.879.879 0 00-.88.88v1.76h-1.76a.88.88 0 00-.88.88v3.52c0 .488.394.88.88.88h1.76z" id="Fill-4" fill="#4C4C4C"/></g></g></g></svg>