<svg width="17" height="17" xmlns="http://www.w3.org/2000/svg" xmlns:xlink="http://www.w3.org/1999/xlink"><defs><path id="path-1" d="M0 .016h16.984V17H0z"/></defs><g id="01-Home_emi" stroke="none" stroke-width="1" fill="none" fill-rule="evenodd" transform="translate(-523 -498)"><g id="Page-1" transform="translate(523 498)"><g id="Group-3"><mask id="mask-2" fill="#fff"><use xlink:href="#path-1"/></mask><path d="M8.492.016a8.492 8.492 0 00-7.309 12.817l-.644 3.62 3.774-.551A8.492 8.492 0 108.491.016" id="Fill-1" fill="#FFF" mask="url(#mask-2)"/></g><path d="M4.215 12.886A2.564 2.564 0 014 11.901a.46.46 0 01.02-.157c.019-.052.144-.147.375-.288.232-.14.52-.3.864-.483l.518-.283c.033-.02.095-.062.185-.127.092-.065.173-.114.244-.147a.506.506 0 01.206-.048c.117 0 .27.106.459.317.189.211.374.425.556.64.183.215.326.322.43.322.046 0 .1-.011.161-.034a1.615 1.615 0 00.318-.156c.071-.043.117-.07.136-.083.645-.358 1.2-.77 1.665-1.236a7.455 7.455 0 001.236-1.665 3.89 3.89 0 00.175-.303c.02-.039.042-.089.064-.151a.479.479 0 00.034-.161c0-.085-.067-.194-.2-.328a3.839 3.839 0 00-.44-.375 3.389 3.389 0 01-.439-.386c-.133-.14-.2-.259-.2-.356 0-.066.016-.134.05-.206a1.49 1.49 0 01.145-.244 3.41 3.41 0 00.127-.186 20.058 20.058 0 01.39-.722c.086-.15.172-.304.26-.464.088-.16.17-.291.244-.396.075-.104.128-.162.161-.175A.459.459 0 0111.9 4c.313 0 .642.072.986.215.3.137.56.445.782.923.22.479.332.903.332 1.275a2.3 2.3 0 01-.025.331 5.77 5.77 0 01-.048.298 5.914 5.914 0 01-.186.61 29.909 29.909 0 00-.229.616c-.391 1.067-1.096 2.11-2.115 3.13-1.018 1.018-2.062 1.723-3.13 2.114a22.812 22.812 0 00-.615.23 5.582 5.582 0 01-.61.185c-.081.016-.18.032-.297.048a2.388 2.388 0 01-.333.025c-.37 0-.796-.11-1.274-.332-.478-.222-.786-.482-.923-.782" id="Fill-4" fill="#4DC247"/></g></g></svg>