<svg width="30" height="30" xmlns="http://www.w3.org/2000/svg"><g id="Footer_emi" stroke="none" stroke-width="1" fill="none" fill-rule="evenodd" transform="translate(-1169 -47)"><path d="M1184 77c-8.284 0-15-6.716-15-15 0-8.284 6.716-15 15-15 8.284 0 15 6.716 15 15 0 8.284-6.716 15-15 15zm-.92-12.853v-4.294l3.688 2.147-3.687 2.147zm8.22-5.592a1.785 1.785 0 00-1.255-1.265c-1.107-.3-5.545-.3-5.545-.3s-4.438 0-5.545.3a1.784 1.784 0 00-1.255 1.265c-.297 1.116-.297 3.445-.297 3.445s0 2.329.297 3.445c.163.616.644 1.1 1.255 1.265 1.107.3 5.545.3 5.545.3s4.438 0 5.545-.3a1.786 1.786 0 001.255-1.265c.297-1.116.297-3.445.297-3.445s0-2.329-.297-3.445z" id="Combined-Shape" fill="#FFF"/></g></svg>