<svg version="1.1" id="Layer_1" xmlns="http://www.w3.org/2000/svg" xmlns:xlink="http://www.w3.org/1999/xlink" x="0" y="0" width="174.072" height="521.592" xml:space="preserve"><path fill="#FFF" d="M40.941-.049c-3.373 0-6.105 2.769-6.105 6.182S40.941 16.6 40.941 16.6s6.104-7.053 6.104-10.467-2.734-6.182-6.104-6.182z"/><path fill="#9B9C9E" d="M19.65 0c-.312 0-1.084.133-1.529.452l-.145.101c-.521.354-1.29.892-1.29 2.027 0 1.736 1.354 4.406 4.146 8.163 3.062 4.104 6.538 5.808 7.729 5.808 1.011 0 2.17-1.413 2.562-2.17.271-.493.021-.758-.021-.808-.021 0-1.906-1.271-2.767-1.844-.22-.146-.428-.222-.608-.222-.193 0-.312.077-.354.094a5.605 5.605 0 01-.548.511c-.592.497-1.486.436-2.125-.158-.575-.538-3.471-4.14-4.296-5.251-.284-.385-.396-.777-.333-1.166.116-.703.771-1.158 1.125-1.403l.09-.062c.313-.225.248-.632.194-.771-.104-.262-1.229-2.686-1.364-2.967C20.008.098 19.917 0 19.65 0zM7.933 2.492c.227-.262.366-.601.366-.977C8.299.702 7.66.042 6.867.042c-.789 0-1.432.659-1.432 1.473 0 .376.143.716.354.977C2.516 3.018 0 5.935 0 9.463c0 3.901 3.075 7.065 6.867 7.065 3.795 0 6.868-3.164 6.868-7.065.002-3.528-2.514-6.445-5.802-6.971zM6.867.631c.475 0 .859.396.859.884 0 .486-.396.882-.859.882a.87.87 0 01-.859-.882c0-.486.386-.884.859-.884z"/><path fill="#FFF" d="M3.559 13l4.646-2.268 2.206-4.79-4.67 2.252L3.559 13zm2.49-4.079l1.461 1.502-2.759 1.345 1.298-2.847zm1.865 1.086L6.455 8.504l2.771-1.335-1.312 2.838z"/><path fill="none" stroke="#9B9C9E" stroke-width="1.5" stroke-linecap="round" stroke-linejoin="round" stroke-miterlimit="10" d="M4.773 29.336l4.486-4.517-4.486-4.486"/><path fill="none" stroke="#009DDE" stroke-width="1.5" stroke-linecap="round" stroke-linejoin="round" stroke-miterlimit="10" d="M28.391 22.592l4.517 4.485 4.486-4.485"/><path fill="none" stroke="#FFF" stroke-width="1.5" stroke-linecap="round" stroke-linejoin="round" stroke-miterlimit="10" d="M93.139 22.592l4.517 4.485 4.486-4.485"/><path fill="none" stroke="#FFF" stroke-width="2" stroke-linecap="round" stroke-linejoin="round" stroke-miterlimit="10" d="M16.773 29.336l4.486-4.517-4.486-4.486"/><path id="SVGID_1_" fill="#FFF" d="M63.119 28.077a.728.728 0 011.272.484.76.76 0 01-.244.543l-6.487 6.604a.71.71 0 01-.539.25.703.703 0 01-.707-.705l.08-2.504-3.157 3.201a.76.76 0 01-1.283-.549c0-.026.003-.053.007-.076.009-.318.048-1.303.048-1.303l-.614.625a.756.756 0 01-1.339-.482v-.021c0-.269.118-2.736.118-2.736l-5.965 5.939c-.021.02-.036.038-.062.056a.763.763 0 01-.507.191.754.754 0 01-.757-.752c0-.224.1-.424.254-.562.271-.284 7.432-7.418 7.432-7.418a.686.686 0 01.521-.234c.383 0 .688.31.688.692 0 .021 0 .04-.002.06l.002.041c0 .188-.068 3.054-.068 3.054l.771-.763a.69.69 0 011.176.485.625.625 0 01-.004.062l-.019 1.207 3.062-3.041a.728.728 0 011.272.479l-.074 2.323 5.125-5.15z"/><path fill="#FFF" d="M25.606 106.98v3.239a.968.968 0 01-.271.23c-.104.061-.181.096-.249.096-.062 0-.137-.024-.171-.067-.044-.054-.062-.121-.062-.224v-3.274h-.873v3.565c0 .259.053.445.146.574.104.129.269.188.451.188.176 0 .335-.043.521-.127.171-.097.334-.224.497-.404v.473h.875v-4.27l-.864.001zm-2.666.205c-.23-.213-.529-.316-.896-.316-.396 0-.712.104-.938.301a.98.98 0 00-.354.787v2.213c0 .369.118.65.342.865.229.215.541.326.917.326.396 0 .716-.104.938-.318.229-.205.345-.486.345-.855v-2.201a1.098 1.098 0 00-.354-.802zm-.548 3.07a.36.36 0 01-.104.267c-.062.067-.162.102-.282.102a.353.353 0 01-.266-.102.372.372 0 01-.096-.267v-2.332c0-.094.035-.172.104-.223.062-.062.152-.086.257-.086a.43.43 0 01.282.086.27.27 0 01.104.223l.001 2.332zm-2.709-4.793l-.606 2.313h-.069l-.634-2.313h-.994l1.188 3.498v2.289h.979v-2.399l1.146-3.388h-1.01zm6.815 10.194c.051.068.076.188.076.342v.396h-.679v-.396c0-.154.019-.271.077-.342.052-.068.138-.111.269-.111.12-.001.205.042.257.111zm-2.692-.018a.318.318 0 00-.24-.104.408.408 0 00-.163.034.575.575 0 00-.161.119v2.418c.06.062.128.109.188.138.06.025.106.043.18.043.104 0 .171-.025.213-.086.044-.052.069-.138.069-.267v-2.007c0-.126-.026-.219-.086-.288zm0 0a.318.318 0 00-.24-.104.408.408 0 00-.163.034.575.575 0 00-.161.119v2.418c.06.062.128.109.188.138.06.025.106.043.18.043.104 0 .171-.025.213-.086.044-.052.069-.138.069-.267v-2.007c0-.126-.026-.219-.086-.288zm4.398-2.992H16.049c-1.316 0-2.426 1.098-2.426 2.436v2.479a2.439 2.439 0 002.426 2.426h12.155a2.435 2.435 0 002.427-2.426v-2.479a2.444 2.444 0 00-2.427-2.436zm-8.881 1.705h-.909v4.491h-.874v-4.491h-.9v-.763h2.686l-.003.763zm2.554 4.492H21.1v-.428a1.514 1.514 0 01-.445.358.903.903 0 01-.445.129.502.502 0 01-.411-.18c-.086-.111-.128-.283-.128-.516v-3.25h.771v2.984a.31.31 0 00.053.194c.025.046.086.062.154.062.061 0 .128-.025.214-.086a.736.736 0 00.239-.205v-2.949h.771l.004 3.887zm2.812-.804c0 .273-.062.488-.188.635-.105.146-.3.225-.521.225a.856.856 0 01-.402-.086 1.081 1.081 0 01-.333-.268v.299h-.78v-5.254h.78v1.688c.104-.108.214-.204.333-.266a.781.781 0 01.358-.096c.229 0 .429.086.56.25.129.162.195.402.195.721l-.002 2.152zm2.692-1.038H25.9v.729c0 .205.019.344.062.42.062.086.146.119.271.119.129 0 .214-.033.268-.103.062-.062.076-.215.076-.438v-.182h.807v.195c0 .404-.104.703-.301.9-.188.207-.479.301-.854.301-.354 0-.625-.104-.821-.316-.195-.215-.3-.506-.3-.885v-1.738c0-.336.104-.607.335-.822.214-.205.495-.315.85-.315s.626.104.812.301c.188.197.292.472.292.84l-.016.994zm-3.815-1.466a.393.393 0 00-.163.035.64.64 0 00-.161.119v2.418c.06.061.128.11.188.137.06.026.106.043.18.043.104 0 .171-.023.213-.086.044-.051.069-.137.069-.266v-2.006c0-.13-.025-.224-.086-.291-.051-.068-.137-.103-.24-.103zm.24.103a.318.318 0 00-.24-.104.408.408 0 00-.163.034.575.575 0 00-.161.119v2.418c.06.062.128.109.188.138.06.025.106.043.18.043.104 0 .171-.025.213-.086.044-.052.069-.138.069-.267v-2.007c0-.126-.026-.219-.086-.288zm0 0a.318.318 0 00-.24-.104.408.408 0 00-.163.034.575.575 0 00-.161.119v2.418c.06.062.128.109.188.138.06.025.106.043.18.043.104 0 .171-.025.213-.086.044-.052.069-.138.069-.267v-2.007c0-.126-.026-.219-.086-.288zm-5.085 49.227h-3.315v-10.609h3.315v10.609zm-1.742-11.938h-.022c-1.2 0-1.979-.812-1.979-1.84 0-1.047.801-1.842 2.021-1.842 1.229 0 1.979.793 1.998 1.84.003 1.03-.772 1.842-2.018 1.842zm15.005 11.938h-3.76v-5.49c0-1.438-.587-2.418-1.895-2.418-.979 0-1.524.662-1.795 1.301-.097.229-.08.548-.08.867v5.74h-3.72s.049-9.726 0-10.609h3.725v1.664c.229-.728 1.409-1.767 3.312-1.767 2.354 0 4.207 1.523 4.207 4.812l.006 5.9zm-1.465-99.732c-.074 1.653-1.23 3.914-3.466 6.783-2.312 3-4.271 4.499-5.872 4.499-.99 0-1.829-.912-2.521-2.742l-1.373-5.031c-.511-1.83-1.058-2.745-1.642-2.745-.127 0-.568.267-1.334.802l-.8-1.031c.838-.733 1.655-1.473 2.479-2.209 1.114-.967 1.954-1.473 2.521-1.524 1.312-.129 2.134.773 2.438 2.705.325 2.085.562 3.381.688 3.89.382 1.728.8 2.59 1.258 2.59.354 0 .891-.558 1.603-1.675.712-1.119 1.092-1.97 1.146-2.556.104-.967-.278-1.446-1.146-1.446a3.24 3.24 0 00-1.258.267c.84-2.72 2.438-4.041 4.804-3.964 1.751.046 2.577 1.178 2.475 3.387z"/><circle fill="none" stroke="#FFF" stroke-miterlimit="10" cx="22.126" cy="68.332" r="21.417"/><path fill="#464648" d="M74.53 65.133c-.072 1.653-1.23 3.914-3.466 6.783-2.312 3-4.271 4.499-5.872 4.499-.988 0-1.829-.912-2.521-2.742-.459-1.679-.901-3.356-1.359-5.031-.521-1.83-1.062-2.745-1.646-2.745-.127 0-.563.267-1.334.802l-.802-1.031c.839-.733 1.664-1.473 2.479-2.209 1.116-.967 1.955-1.473 2.521-1.524 1.312-.129 2.136.773 2.438 2.705.327 2.085.562 3.381.688 3.89.384 1.728.802 2.59 1.26 2.59.354 0 .892-.558 1.604-1.675.72-1.119 1.1-1.97 1.146-2.556.104-.967-.274-1.446-1.146-1.446-.398 0-.818.086-1.264.267.844-2.72 2.438-4.041 4.812-3.964 1.739.046 2.565 1.178 2.462 3.387z"/><circle fill="none" stroke="#464648" stroke-miterlimit="10" cx="66.138" cy="68.332" r="21.417"/><circle fill="none" stroke="#FFF" stroke-miterlimit="10" cx="22.126" cy="112.811" r="21.417"/><circle fill="none" stroke="#FFF" stroke-miterlimit="10" cx="22.126" cy="157.054" r="21.417"/><path fill="#464648" d="M62.732 164.865h-3.313v-10.609h3.313v10.609zm-1.742-11.938h-.024c-1.188 0-1.979-.812-1.979-1.84 0-1.047.803-1.842 2.025-1.842s1.975.793 1.984 1.84c.016 1.03-.76 1.842-2.006 1.842zm15.006 11.938h-3.762v-5.49c0-1.438-.587-2.418-1.881-2.418-.986 0-1.538.662-1.795 1.301-.104.229-.08.548-.08.867v5.74H64.75s.062-9.726 0-10.609h3.729v1.664c.222-.728 1.409-1.767 3.311-1.767 2.354 0 4.207 1.523 4.207 4.812l-.001 5.9z"/><circle fill="none" stroke="#464648" stroke-miterlimit="10" cx="66.138" cy="157.054" r="21.417"/><path fill="#464648" d="M69.515 106.98v3.239a.968.968 0 01-.271.23c-.104.061-.182.096-.249.096-.076 0-.139-.024-.171-.067-.045-.054-.062-.121-.062-.224v-3.274h-.872v3.565c0 .259.051.445.146.574.104.129.27.188.454.188.172 0 .335-.043.521-.127.171-.097.334-.224.487-.404v.473h.875v-4.27l-.858.001zm-2.667.205c-.229-.213-.531-.316-.896-.316-.396 0-.711.104-.951.301a.983.983 0 00-.354.787v2.213c0 .369.119.65.344.865.23.215.541.326.918.326.396 0 .712-.104.938-.318.229-.205.344-.486.344-.855v-2.201c0-.329-.12-.595-.343-.802zm-.548 3.07c0 .111-.021.195-.104.267a.376.376 0 01-.28.102.361.361 0 01-.268-.102.367.367 0 01-.095-.267v-2.332c0-.094.021-.172.103-.223.062-.062.154-.086.26-.086.109 0 .206.024.28.086a.265.265 0 01.104.223v2.332zm-2.709-4.793l-.604 2.313h-.067l-.636-2.313h-.994l1.175 3.498v2.289h.984v-2.399l1.142-3.388h-1zm6.815 10.194c.053.068.076.188.076.342v.396h-.677v-.396c0-.154.017-.271.063-.342a.344.344 0 01.271-.111c.131-.001.215.042.267.111zm-2.691-.018a.285.285 0 00-.229-.104.37.37 0 00-.163.034.487.487 0 00-.163.119v2.418c.062.062.13.109.188.138a.471.471 0 00.187.043c.104 0 .172-.025.214-.086.043-.052.066-.138.066-.267v-2.007a.52.52 0 00-.1-.288zm0 0a.285.285 0 00-.229-.104.37.37 0 00-.163.034.487.487 0 00-.163.119v2.418c.062.062.13.109.188.138a.471.471 0 00.187.043c.104 0 .172-.025.214-.086.043-.052.066-.138.066-.267v-2.007a.52.52 0 00-.1-.288zm4.397-2.992H59.957a2.444 2.444 0 00-2.428 2.436v2.479a2.435 2.435 0 002.428 2.426H72.11a2.437 2.437 0 002.429-2.426v-2.479a2.444 2.444 0 00-2.427-2.436zm-8.881 1.705h-.909v4.491h-.875v-4.491h-.897v-.763h2.688l-.007.763zm2.554 4.492h-.779v-.428a1.48 1.48 0 01-.438.358.936.936 0 01-.446.129.498.498 0 01-.41-.18c-.086-.111-.128-.283-.128-.516v-3.25h.771v2.984c0 .084.018.153.051.194.021.046.087.062.155.062.061 0 .128-.025.214-.086a.622.622 0 00.229-.205v-2.949h.779l.002 3.887zm2.813-.804c0 .273-.062.488-.188.635a.648.648 0 01-.521.225.87.87 0 01-.404-.086 1.108 1.108 0 01-.334-.268v.299h-.78v-5.254h.777v1.688c.104-.108.215-.204.334-.266a.792.792 0 01.354-.096c.24 0 .438.086.562.25.129.162.191.402.191.721l.009 2.152zm2.691-1.038H69.81v.729c0 .205.018.344.062.42.051.086.146.119.271.119.129 0 .214-.033.268-.103.051-.062.074-.215.074-.438v-.182h.809v.195c0 .404-.104.703-.302.9-.188.207-.479.301-.864.301-.354 0-.625-.104-.812-.316-.195-.215-.312-.506-.312-.885v-1.738c0-.336.109-.607.335-.822.226-.205.497-.315.854-.315.354 0 .626.104.812.301.188.197.292.472.292.84l-.008.994zm-3.814-1.466a.354.354 0 00-.163.035.532.532 0 00-.163.119v2.418c.062.061.129.11.188.137a.483.483 0 00.188.043c.104 0 .171-.023.213-.086.043-.051.062-.137.062-.266v-2.006c0-.13-.021-.224-.086-.291-.051-.068-.137-.103-.239-.103zm.24.103a.285.285 0 00-.229-.104.37.37 0 00-.163.034.487.487 0 00-.163.119v2.418c.062.062.13.109.188.138a.471.471 0 00.187.043c.104 0 .172-.025.214-.086.043-.052.066-.138.066-.267v-2.007a.52.52 0 00-.1-.288zm0 0a.285.285 0 00-.229-.104.37.37 0 00-.163.034.487.487 0 00-.163.119v2.418c.062.062.13.109.188.138a.471.471 0 00.187.043c.104 0 .172-.025.214-.086.043-.052.066-.138.066-.267v-2.007a.52.52 0 00-.1-.288z"/><circle fill="none" stroke="#464648" stroke-miterlimit="10" cx="66.035" cy="112.811" r="21.417"/><ellipse fill="#9B9C9E" cx="40.94" cy="5.629" rx="2.047" ry="2.101"/><path fill="none" stroke="#FFF" stroke-width="1.25" stroke-linecap="round" stroke-linejoin="round" stroke-miterlimit="10" d="M60.035 9.323l2.971-2.992-2.971-2.971"/><path fill="none" stroke="#9B9C9E" stroke-width="1.25" stroke-linecap="round" stroke-linejoin="round" stroke-miterlimit="10" d="M73.053 9.323l2.971-2.992-2.971-2.971"/><path fill="none" stroke="#009DDE" stroke-width="1.25" stroke-linecap="round" stroke-linejoin="round" stroke-miterlimit="10" d="M85.551 9.323l2.971-2.992-2.971-2.971"/><path fill="#CACACA" d="M4.211 220.148c-.438 0-1.541.188-2.174.645l-.204.145c-.729.503-1.833 1.267-1.833 2.888 0 2.475 1.938 6.279 5.898 11.637 4.332 5.852 9.287 8.277 10.977 8.277 1.438 0 3.082-2.016 3.646-3.094.368-.707.021-1.083-.051-1.15a417.387 417.387 0 01-3.91-2.629c-.312-.209-.605-.316-.881-.316a.845.845 0 00-.483.135c-.004.01-.261.289-.778.729-.839.707-2.108.621-3.02-.226-.816-.771-4.927-5.901-6.104-7.485-.396-.552-.562-1.106-.475-1.662.166-1.002 1.1-1.649 1.599-2l.126-.088c.448-.32.354-.902.276-1.101-.14-.373-1.74-3.828-1.94-4.229-.162-.337-.292-.476-.669-.476z"/><path fill="#FFF" d="M127.736 220.148c-.438 0-1.541.188-2.174.645l-.204.145c-.729.503-1.833 1.267-1.833 2.888 0 2.475 1.938 6.279 5.897 11.637 4.332 5.852 9.287 8.277 10.978 8.277 1.438 0 3.082-2.016 3.646-3.094.368-.707.021-1.083-.051-1.15a417.387 417.387 0 01-3.91-2.629c-.312-.209-.604-.316-.881-.316s-.448.109-.482.135c-.005.01-.262.289-.778.729-.839.707-2.109.621-3.021-.226-.815-.771-4.927-5.901-6.104-7.485-.396-.552-.562-1.106-.476-1.662.166-1.002 1.101-1.649 1.6-2l.126-.088c.448-.32.354-.902.276-1.101-.141-.373-1.74-3.828-1.94-4.229-.162-.337-.292-.476-.669-.476z"/><path fill="#CACACA" d="M61.857 219.854c-4.897 0-8.869 4.021-8.869 8.979s8.869 15.203 8.869 15.203 8.867-10.244 8.867-15.203-3.971-8.979-8.867-8.979zm-.001 5.097c1.699 0 3.078 1.416 3.078 3.16 0 1.744-1.379 3.16-3.078 3.16-1.701 0-3.078-1.416-3.078-3.16 0-1.744 1.377-3.16 3.078-3.16z"/><path fill="#FFF" d="M110.175 267.087a6.95 6.95 0 01-2.008.553 3.475 3.475 0 001.537-1.936 7.126 7.126 0 01-2.222.848 3.484 3.484 0 00-2.551-1.104 3.487 3.487 0 00-3.494 3.494c0 .271.021.539.09.797a9.924 9.924 0 01-7.205-3.652 3.499 3.499 0 00-.473 1.762c0 1.211.604 2.279 1.555 2.906a3.523 3.523 0 01-1.584-.438v.043a3.509 3.509 0 002.806 3.43 3.5 3.5 0 01-1.578.061 3.501 3.501 0 003.271 2.426 7.006 7.006 0 01-4.341 1.496c-.282 0-.562-.021-.834-.047a9.961 9.961 0 005.354 1.563c6.438 0 9.944-5.326 9.944-9.946 0-.146-.003-.304-.01-.447a7.072 7.072 0 001.743-1.809m-55.457 14.528c-2.021 0-3.479-1.279-3.479-2.816 0-1.508 1.812-2.762 3.833-2.737.473.004.911.08 1.312.209 1.104.771 1.896 1.192 2.105 2.063.042.176.062.354.062.543-.001 1.537-.992 2.738-3.833 2.738m.531-9.016c-1.354-.039-2.646-1.52-2.881-3.301-.234-1.781.676-3.146 2.031-3.104 1.354.041 2.646 1.477 2.881 3.258.234 1.776-.675 3.188-2.031 3.147m2.812 2.639c-.479-.339-1.396-1.156-1.396-1.64 0-.563.16-.854 1.021-1.52.871-.686 1.479-1.641 1.479-2.75 0-1.312-.59-2.604-1.688-3.043h1.67l1.179-.854h-5.269c-2.36 0-4.583 1.785-4.583 3.855 0 2.117 1.604 3.826 4.013 3.826.167 0 .328-.006.488-.018-.156.297-.271.637-.271.979 0 .593.316 1.062.718 1.456-.303 0-.596.012-.9.012-2.938 0-5.188 1.857-5.188 3.796 0 1.896 2.479 3.099 5.396 3.099 3.334 0 5.177-1.896 5.177-3.795-.003-1.507-.453-2.419-1.846-3.403m7.664-2.483H63.67v-2.051h-1.646v2.051h-2.05v1.65h2.05v2.051h1.646v-2.051h2.062l-.007-1.65zm-63.589-1.681h1.758v-1.709c0-.757.021-1.916.562-2.638.577-.771 1.369-1.278 2.729-1.278 2.218 0 3.146.312 3.146.312l-.431 2.606s-.732-.214-1.417-.214c-.688 0-1.296.244-1.296.931v1.983h2.805l-.196 2.548H7.191v8.838H3.894v-8.838H2.136v-2.541z"/><path id="magnifier-2-icon" fill="#FFF" d="M14.776 323.282l-3.854-3.852a6.002 6.002 0 001.152-3.556c0-3.319-2.709-6.028-6.039-6.028S0 312.558 0 315.888a6.046 6.046 0 006.039 6.038 5.99 5.99 0 003.404-1.054l3.871 3.871 1.462-1.461zm-13.005-7.394a4.273 4.273 0 014.269-4.269 4.274 4.274 0 014.271 4.269 4.275 4.275 0 01-4.271 4.271 4.278 4.278 0 01-4.269-4.271z"/><path id="magnifier-2-icon_1_" fill="#FFF" d="M55.683 332.375l-6.457-6.457a10.073 10.073 0 001.933-5.942c0-5.584-4.542-10.127-10.126-10.127-5.585 0-10.127 4.543-10.127 10.127s4.542 10.127 10.127 10.127a10.01 10.01 0 005.71-1.769l6.49 6.491 2.45-2.45zm-21.806-12.399a7.163 7.163 0 017.156-7.156c3.946 0 7.157 3.209 7.157 7.156 0 3.945-3.211 7.156-7.157 7.156-3.947 0-7.156-3.211-7.156-7.156z"/><path fill="#FFF" d="M7.375 346.019c-3.812 0-6.914 3.135-6.914 7 0 3.864 6.914 11.854 6.914 11.854s6.917-7.988 6.917-11.854c0-3.868-3.097-7-6.917-7z"/><circle fill="#F09200" cx="7.374" cy="352.523" r="3.395"/><path fill="none" stroke="#FFF" stroke-width="1.3" stroke-linecap="round" stroke-linejoin="round" stroke-miterlimit="10" d="M5.813 389.448l3.38-3.406-3.38-3.379"/><path fill="#FFF" d="M31.765 407.861h37.9v.48h-37.9zm.036 23.911h37.908v.484H31.801z"/><defs><path id="SVGID_2_" d="M.709 407.861h69v24.502h-69z"/></defs><clipPath id="SVGID_3_"><use xlink:href="#SVGID_2_" overflow="visible"/></clipPath><path clip-path="url(#SVGID_3_)" fill="#FFF" d="M3.32 407.881a2.613 2.613 0 00-2.61 2.611v19.259a2.614 2.614 0 002.61 2.612h19.259a2.617 2.617 0 002.613-2.612v-19.259a2.615 2.615 0 00-2.613-2.611H3.32zm-2.128 21.87v-19.259c0-1.173.954-2.126 2.128-2.126h19.259c1.174 0 2.128.953 2.128 2.126v19.259a2.128 2.128 0 01-2.128 2.127H3.32a2.128 2.128 0 01-2.128-2.127m14.298-6.573c-1.025.065-1.693-.562-1.693-.562l.412-.267s.443.353.922.367c.479.026.687-.071.687-.071l-1.298-.504.384-.277 2.035.802c-.008-.009-.427.447-1.449.512m-.212.323l.025-.079s.271.053.556.011c.281-.041.373-.079.373-.079l.604.604 5.308 2.473s-.021.111-.187.271c-.151.146-.331.189-.331.189l-6.348-3.39zm-4.716 6.224l-.453.407-.58-.018-.729.362-.266-.172.876-.704 1.152.125zm2.035-1.948l-.628 1.767-.562-.071.627-1.623-.854-2.222s.166.104.351.192c.188.09.318.14.318.14l.748 1.817zm-5.74-3.429s.093-.06.167-.217c.062-.13.138-.265-.032-.326-.181-.062-.247.146-.307.271a2.312 2.312 0 00-.114.312l.056.095-.099.066s-.085-.021-.154-.062a.74.74 0 01-.374-.629c0-.192.104-.485.404-.793-.134-.159-.065-.48-.021-.595.23-.562 1.105-1.144 2.604-1.725l.147-.055s-.088.283-.104.354c1.334-.367 2.32-.017 2.32-.017s-.082.075-.138.177c-.049.104-.063.213-.063.213s-.54-.099-1.072-.099c-.787 0-1.396.303-1.396.303s.065-.312.085-.362c-1.229.267-2.455 1.418-1.945 1.662.159.078.3-.118.521-.358.562-.622.945-.596 1.141-.532l-.125.38c-.118-.036-.398-.047-.891.412-.067.063-.052.174.04.174.103 0 .126-.167.126-.167h.28s.035.478-.403.478c-.229 0-.305-.134-.314-.147-.147.088-.294.13-.418.104 0 0-.02-.006-.021-.009-.225.152-.354.382-.354.536v.019a.208.208 0 00.021.072c.148-.22.354-.46.71-.365a.42.42 0 01.269.192c.021.05.039.109.039.177a.528.528 0 01-.047.19 1.7 1.7 0 00.316-.167c.125-.089.257-.177.443-.237.396-.126.809-.148 1.289-.146.007-.067.05-.375.05-.375.127.222.34.604.688.938.457.438 1.151.839 1.701 1.107-.29-.417-.651-.634-.852-.675l.209-.316c.271.013.956.202 1.363 1.173l1.043 2.288-.776 2.09 1.415-.021.658.604-.24.15-.528-.229-1.688.108-1.354-.2-.713.311-.263-.154.864-.753 1.188.151.812-1.968-.806-1.771c-.496-.196-2.019-.87-2.81-1.942l-.595-.026c-.391-.008-.729.085-.89.188-.444.285-.722.259-.956.188l-.106-.045m11.028.926l3.309 1.804s-.122.188-.252.271c-.145.087-.314.146-.314.146l-3.026-2.088.283-.133zm-.994.244l.351-.042 2.749 2.112s-.075.108-.232.202c-.151.095-.395.113-.395.113l-2.473-2.385zm-.783-.09l.408.078 2.105 2.312s-.105.109-.307.175c-.166.05-.36.036-.36.036l-1.846-2.601zm1.131 2.238s-.104.092-.308.142a.865.865 0 01-.387-.014l-1.066-2.028-1.393-.481-.126-.37 1.74.491 1.54 2.26zm-1.987-.268s.002.192-.059.321c-.084.188-.192.229-.192.229l-1.022-1.303.066-.366 1.207 1.119zm.199-.89s.063.153.011.384c-.038.162-.13.229-.13.229l-1.251-1.162-.007-.402 1.377.951zm-.64 1.72s-.036.165-.124.281c-.126.158-.242.157-.242.157l-.694-1.416.146-.348.914 1.326zm-6.517-12.904l-.5-.255-1.1-4.439s.339-.033.634.136c.298.171.382.316.465.479l.501 4.079zm1.097.753l-.475-.354-.378-4.165s.348.021.604.233c.27.214.328.37.389.537l-.14 3.749zm.811.746l-.367-.359.354-3.618s.335.074.559.335c.171.2.211.372.235.55l-.781 3.092zm.72.856l-.312-.396.872-2.988s.203.062.396.312c.146.19.154.322.147.508l-1.103 2.564zm.576.94l-.229-.43 1.087-2.484s.171.042.334.312c.104.21.119.313.089.488l-1.281 2.114zm.457 1.033l-.182-.438 1.209-2.028s.199.091.269.311a.663.663 0 010 .449l-1.296 1.706zm-4.79-4.856l-.576-.188-2.029-4.562s.32-.093.646.021c.321.105.428.232.542.381l1.417 4.348zm11.119 1.504l.093-.553 3.897-2.391s.135.312.062.646a.975.975 0 01-.31.584l-3.742 1.714zm-.384 1.4l.188-.551 3.854-1.62s.082.33-.039.646c-.123.317-.255.422-.397.528l-3.606.997zm-.382 1.112l.229-.467 3.562-.76s.023.342-.15.631c-.142.229-.293.313-.45.396l-3.191.2zm-.647 1.103l.29-.427 3.11-.071s-.001.215-.177.475a.738.738 0 01-.438.296l-2.785-.273zm-.721.833l.339-.354 2.695.286s.013.183-.197.412c-.165.168-.262.206-.438.234l-2.399-.578zm-.848.749l.359-.305 2.301.541s-.021.212-.207.345a.7.7 0 01-.429.136l-2.024-.717zm3.123-6.475l.017-.606 3.729-3.319s.188.284.181.625c-.015.348-.104.481-.196.632l-3.731 2.668zm-5.547 7.594l-.357.262s-.354-.307-.828-.462c-.479-.156-.98-.062-.98-.062l-.093-.416s.428-.062.762-.013a1.12 1.12 0 01.326-.963s1.591-1.478 2.094-2.483c.854-1.707.866-2.675.866-2.675l6.97-6.013s.133.011.188.211c.044.151.012.329.012.329l-6.596 5.792c-.387 2.55-1.569 3.74-2.938 5.115l-.144.146c-.291.325-.067.635.085.757.185.157.633.475.633.475m-2.223-1.998s-.135-.035-.41-.035c-.271 0-.446.034-.446.034s-.65-.837-1.461-1.54a12.533 12.533 0 00-1.643-1.205l-3.566-7.927s.166-.048.349-.039a.98.98 0 01.264.039l3.521 7.476s.688.438 1.466 1.078c1.089.914 1.926 2.119 1.926 2.119"/><defs><path id="SVGID_4_" d="M.709 407.861h69v24.502h-69z"/></defs><clipPath id="SVGID_5_"><use xlink:href="#SVGID_4_" overflow="visible"/></clipPath><path clip-path="url(#SVGID_5_)" fill="#FFF" d="M33.422 412.754h6.942l-.348 2.073h-4.2v3.952h2.968v2.064l-2.968.008v5.672h-2.394z"/><defs><path id="SVGID_6_" d="M.709 407.861h69v24.502h-69z"/></defs><clipPath id="SVGID_7_"><use xlink:href="#SVGID_6_" overflow="visible"/></clipPath><path clip-path="url(#SVGID_7_)" fill="#FFF" d="M54.321 422.766c0 1.07.155 2.124 1.204 2.124.938 0 1.262-.757 1.262-1.667v-.443h2.256l.005.443c0 2.089-1.251 3.441-3.521 3.441-3.065 0-3.604-1.897-3.689-4.938l-.004-.307c.021-3.641.276-5.976 3.685-5.976 2.271 0 3.521 1.353 3.521 3.438l-.007.451h-2.26v-.451c0-.911-.316-1.667-1.267-1.667-1.049 0-1.195 1.061-1.195 2.125l.01 3.427z"/><defs><path id="SVGID_8_" d="M.709 407.861h69v24.502h-69z"/></defs><clipPath id="SVGID_9_"><use xlink:href="#SVGID_8_" overflow="visible"/></clipPath><path clip-path="url(#SVGID_9_)" fill="#FFF" d="M47.938 412.758l2.382-.004v11.763l1.262.734v1.319s-1.597.103-2.493-.202c-.527-.188-1.146-.744-1.146-2.354l-.005-11.256z"/><defs><path id="SVGID_10_" d="M.709 407.861h69v24.502h-69z"/></defs><clipPath id="SVGID_11_"><use xlink:href="#SVGID_10_" overflow="visible"/></clipPath><path clip-path="url(#SVGID_11_)" fill="#FFF" d="M60.073 412.754h2.395v6.918h.563l2.011-4.103h2.552l-2.767 5.039 3.289 5.915-2.633.019-2.6-5.051h-.428l-.006 5.032h-2.376z"/><defs><path id="SVGID_12_" d="M.709 407.861h69v24.502h-69z"/></defs><clipPath id="SVGID_13_"><use xlink:href="#SVGID_12_" overflow="visible"/></clipPath><path clip-path="url(#SVGID_13_)" fill="#FFF" d="M43.386 415.443c-.896 0-1.764.346-2.348.932-.586.586-.935 1.409-.999 2.387h2.083c.13-.717.488-1.27 1.264-1.27.816 0 1.062.499 1.062 1.229v.992c-.479.112-2.142.247-3.389.998-.616.375-1.417 1.231-1.417 2.969 0 2.019 1.225 2.831 2.45 2.938 1.213.103 1.842-.281 2.31-.963l.22.882h2.084v-7.858c.007-2.293-1.477-3.236-3.32-3.236m1.037 7.784c0 .896-.799 1.615-1.521 1.615-.707 0-1.133-.562-1.133-1.404 0-.146.094-.688.354-1.01.552-.647 2.146-1.016 2.303-.979l-.003 1.778z"/><defs><path id="SVGID_14_" d="M0 446.184h133.869v16.476H0z"/></defs><clipPath id="SVGID_15_"><use xlink:href="#SVGID_14_" overflow="visible"/></clipPath><path clip-path="url(#SVGID_15_)" fill="#FFF" d="M5.426 453.164h.283v-.073c0-1.306-.515-1.787-1.684-1.787-.41 0-1.215.108-1.215.606v.479H.7v-.968c0-1.7 2.397-1.878 3.347-1.878 3.04 0 3.938 1.591 3.938 3.632v3.403c0 .25.146.391.396.391H9.1v1.918H7.053c-.845 0-1.164-.467-1.164-1.005 0-.229.021-.392.021-.392h-.04s-.694 1.606-2.754 1.606c-1.629 0-3.115-1.02-3.115-2.849.001-2.849 3.938-3.083 5.425-3.083m-1.754 4.17c1.223 0 2.073-1.285 2.073-2.396v-.218h-.392c-1.188 0-3.062.161-3.062 1.438.004.606.449 1.176 1.381 1.176"/><defs><path id="SVGID_16_" d="M0 446.184h133.869v16.476H0z"/></defs><clipPath id="SVGID_17_"><use xlink:href="#SVGID_16_" overflow="visible"/></clipPath><path clip-path="url(#SVGID_17_)" fill="#FFF" d="M10.271 452.091c0-.27-.147-.396-.396-.396h-.714v-1.935h2.091c.811 0 1.2.375 1.2 1.021v.271c0 .197-.036.395-.036.395h.036c.396-.771 1.378-1.896 3.225-1.896 2.022 0 3.188 1.061 3.188 3.478v3.562c0 .249.146.396.395.396h.719v1.916H17.81c-.86 0-1.22-.359-1.22-1.219v-4.188c0-1.115-.282-1.865-1.435-1.865-1.216 0-2.127.771-2.451 1.865a3.86 3.86 0 00-.178 1.215v4.188h-2.254v-6.805l-.001-.003z"/><defs><path id="SVGID_18_" d="M0 446.184h133.869v16.476H0z"/></defs><clipPath id="SVGID_19_"><use xlink:href="#SVGID_18_" overflow="visible"/></clipPath><path clip-path="url(#SVGID_19_)" fill="#FFF" d="M21.074 451.569h-1.182v-1.806h1.23v-2.487h2.225v2.487h2.07v1.806h-2.07v3.688c0 1.504 1.184 1.715 1.809 1.715.249 0 .411-.031.411-.031v1.982s-.289.058-.697.058c-1.278 0-3.799-.371-3.799-3.438l.003-3.974z"/><defs><path id="SVGID_20_" d="M0 446.184h133.869v16.476H0z"/></defs><clipPath id="SVGID_21_"><use xlink:href="#SVGID_20_" overflow="visible"/></clipPath><path clip-path="url(#SVGID_21_)" fill="#FFF" d="M26.703 448.513c0-.271-.145-.395-.396-.395h-.717v-1.938h2.166c.846 0 1.223.375 1.223 1.199v3.205c0 .446-.036.771-.036.771h.036c.427-.882 1.557-1.812 3.131-1.812 2.04 0 3.188 1.054 3.188 3.472v3.564c0 .249.146.391.396.391h.716v1.917h-2.17c-.841 0-1.203-.355-1.203-1.215v-4.188c0-1.115-.303-1.865-1.448-1.865-1.194 0-2.13.787-2.47 1.896-.109.356-.144.755-.144 1.186v4.188h-2.273l.001-10.376z"/><defs><path id="SVGID_22_" d="M0 446.184h133.869v16.476H0z"/></defs><clipPath id="SVGID_23_"><use xlink:href="#SVGID_22_" overflow="visible"/></clipPath><path clip-path="url(#SVGID_23_)" fill="#FFF" d="M37.649 452.091c0-.27-.146-.396-.396-.396h-.718v-1.935h2.076c.808 0 1.215.345 1.215 1.11v.537c0 .341-.033.564-.033.564h.033c.411-1.307 1.507-2.344 2.903-2.344.19 0 .408.034.408.034v2.238s-.232-.037-.561-.037c-.965 0-2.076.556-2.482 1.918a5.596 5.596 0 00-.193 1.479v3.617h-2.255l.003-6.785z"/><defs><path id="SVGID_24_" d="M0 446.184h133.869v16.476H0z"/></defs><clipPath id="SVGID_25_"><use xlink:href="#SVGID_24_" overflow="visible"/></clipPath><path clip-path="url(#SVGID_25_)" fill="#FFF" d="M48.413 449.551c2.792 0 5.011 1.988 5.011 4.78 0 2.809-2.22 4.779-5.011 4.779-2.771 0-4.999-1.974-4.999-4.779.001-2.794 2.224-4.78 4.999-4.78m0 7.623c1.481 0 2.721-1.146 2.721-2.843 0-1.684-1.235-2.846-2.721-2.846-1.471 0-2.705 1.162-2.705 2.846.001 1.697 1.235 2.843 2.705 2.843"/><defs><path id="SVGID_26_" d="M0 446.184h133.869v16.476H0z"/></defs><clipPath id="SVGID_27_"><use xlink:href="#SVGID_26_" overflow="visible"/></clipPath><path clip-path="url(#SVGID_27_)" fill="#FFF" d="M54.891 452.091c0-.27-.146-.396-.396-.396h-.72v-1.935H55.8c.845 0 1.147.375 1.147.88v.354h.035s.768-1.45 2.896-1.45c2.476 0 4.067 1.953 4.067 4.782 0 2.899-1.793 4.779-4.19 4.779-1.806 0-2.609-1.196-2.609-1.196h-.039s.039.314.039.786v3.772h-2.254l-.001-10.376h-.002.002zm4.456 5.104c1.251 0 2.308-1.023 2.308-2.831 0-1.735-.928-2.865-2.272-2.865-1.182 0-2.283.86-2.283 2.881-.006 1.416.743 2.815 2.247 2.815"/><defs><path id="SVGID_28_" d="M0 446.184h133.869v16.476H0z"/></defs><clipPath id="SVGID_29_"><use xlink:href="#SVGID_28_" overflow="visible"/></clipPath><path clip-path="url(#SVGID_29_)" fill="#FFF" d="M69.683 449.551c2.794 0 5.013 1.988 5.013 4.78 0 2.809-2.22 4.779-5.013 4.779-2.777 0-4.997-1.974-4.997-4.779 0-2.794 2.22-4.78 4.997-4.78m0 7.623c1.483 0 2.723-1.146 2.723-2.843 0-1.684-1.235-2.846-2.723-2.846-1.473 0-2.705 1.162-2.705 2.846 0 1.697 1.237 2.843 2.705 2.843"/><defs><path id="SVGID_30_" d="M0 446.184h133.869v16.476H0z"/></defs><clipPath id="SVGID_31_"><use xlink:href="#SVGID_30_" overflow="visible"/></clipPath><path clip-path="url(#SVGID_31_)" fill="#FFF" d="M76.036 447.759c0-.249-.146-.395-.396-.395h-.75v-1.059h1.27c.771 0 1.091.321 1.091 1.097v10.042c0 .268.146.395.396.395h.75v1.054h-1.271c-.769 0-1.09-.318-1.09-1.089v-10.045z"/><defs><path id="SVGID_32_" d="M0 446.184h133.869v16.476H0z"/></defs><clipPath id="SVGID_33_"><use xlink:href="#SVGID_32_" overflow="visible"/></clipPath><path clip-path="url(#SVGID_33_)" fill="#FFF" d="M83.669 449.675c2.632 0 4.765 2.003 4.765 4.673 0 2.729-2.128 4.766-4.746 4.766-2.63 0-4.765-2.037-4.765-4.766.001-2.67 2.13-4.673 4.746-4.673m.014 8.34c1.92 0 3.487-1.567 3.487-3.667 0-2.041-1.568-3.562-3.487-3.562-1.937 0-3.513 1.521-3.513 3.562.006 2.093 1.58 3.667 3.513 3.667"/><defs><path id="SVGID_34_" d="M0 446.184h133.869v16.476H0z"/></defs><clipPath id="SVGID_35_"><use xlink:href="#SVGID_34_" overflow="visible"/></clipPath><path clip-path="url(#SVGID_35_)" fill="#FFF" d="M93.359 449.675c2.421 0 2.992 1.54 2.992 1.54h.04v-.341c0-.647.278-.984 1.018-.984h1.252v1.06h-.734c-.251 0-.394.127-.394.393v7.339c0 2.867-2.113 3.979-4.329 3.979a6.545 6.545 0 01-2.938-.723l.47-1.021s1.104.63 2.435.63c1.754 0 3.148-.823 3.148-2.829v-.789c0-.341.019-.644.019-.644h-.036c-.531.979-1.436 1.557-2.821 1.557-2.42 0-4.018-1.915-4.018-4.619-.003-2.705 1.479-4.548 3.896-4.548m2.976 4.548c0-2.632-1.254-3.438-2.848-3.438-1.755 0-2.774 1.271-2.774 3.422s1.164 3.546 2.938 3.546c1.43-.003 2.684-.881 2.684-3.53"/><defs><path id="SVGID_36_" d="M0 446.184h133.869v16.476H0z"/></defs><clipPath id="SVGID_37_"><use xlink:href="#SVGID_36_" overflow="visible"/></clipPath><path clip-path="url(#SVGID_37_)" fill="#FFF" d="M100.474 451.34c0-.249-.146-.393-.397-.393h-.753v-1.06h1.272c.771 0 1.091.322 1.091 1.095v6.464c0 .269.144.395.396.395h.756v1.054h-1.271c-.772 0-1.093-.318-1.093-1.089l-.001-6.466zm-.036-5.029h1.183v1.541h-1.183v-1.541z"/><defs><path id="SVGID_38_" d="M0 446.184h133.869v16.476H0z"/></defs><clipPath id="SVGID_39_"><use xlink:href="#SVGID_38_" overflow="visible"/></clipPath><path clip-path="url(#SVGID_39_)" fill="#FFF" d="M108.108 449.675c1.02 0 3.2.437 3.2 1.916v.806h-1.146v-.521c0-.749-1.312-1.108-2.06-1.108-1.937 0-3.488 1.446-3.488 3.64 0 2.219 1.627 3.597 3.521 3.597 1.847 0 2.898-1.273 2.898-1.273l.57.915s-1.216 1.474-3.523 1.474c-2.687 0-4.725-1.913-4.725-4.707.008-2.771 2.065-4.739 4.753-4.739"/><defs><path id="SVGID_40_" d="M0 446.184h133.869v16.476H0z"/></defs><clipPath id="SVGID_41_"><use xlink:href="#SVGID_40_" overflow="visible"/></clipPath><path clip-path="url(#SVGID_41_)" fill="#FFF" d="M112.977 457.461h1.378v1.434h-1.378z"/><defs><path id="SVGID_42_" d="M0 446.184h133.869v16.476H0z"/></defs><clipPath id="SVGID_43_"><use xlink:href="#SVGID_42_" overflow="visible"/></clipPath><path clip-path="url(#SVGID_43_)" fill="#FFF" d="M120.255 449.675c1.021 0 3.207.437 3.207 1.916v.806h-1.146v-.521c0-.749-1.312-1.108-2.062-1.108-1.931 0-3.485 1.446-3.485 3.64 0 2.219 1.626 3.597 3.521 3.597 1.846 0 2.903-1.273 2.903-1.273l.57.915s-1.221 1.474-3.524 1.474c-2.688 0-4.729-1.913-4.729-4.707 0-2.771 2.058-4.739 4.745-4.739"/><defs><path id="SVGID_44_" d="M0 446.184h133.869v16.476H0z"/></defs><clipPath id="SVGID_45_"><use xlink:href="#SVGID_44_" overflow="visible"/></clipPath><path clip-path="url(#SVGID_45_)" fill="#FFF" d="M129.107 449.675c2.631 0 4.762 2.003 4.762 4.673 0 2.729-2.131 4.766-4.743 4.766-2.635 0-4.759-2.037-4.759-4.766 0-2.67 2.125-4.673 4.74-4.673m.019 8.34c1.919 0 3.493-1.567 3.493-3.667 0-2.041-1.574-3.562-3.493-3.562-1.932 0-3.508 1.521-3.508 3.562 0 2.093 1.575 3.667 3.508 3.667"/><circle fill="none" stroke="#95BC0D" stroke-miterlimit="10" cx="14.95" cy="500.998" r="13.76"/><path fill="#95BC0D" d="M12.536 506.634l6.547-5.636-6.547-5.637z"/><circle fill="none" stroke="#F09200" stroke-width="2" stroke-miterlimit="10" cx="47.575" cy="500.998" r="13.76"/><path fill="#F09200" d="M45.161 506.634l6.547-5.636-6.547-5.637z"/><circle fill="none" stroke="#FFF" stroke-width="2" stroke-miterlimit="10" cx="84.908" cy="500.998" r="13.76"/><path fill="#FFF" d="M82.494 506.634l6.547-5.636-6.547-5.637z"/></svg>