<?xml version="1.0" encoding="UTF-8"?>
<svg width="17px" height="17px" viewBox="0 0 17 17" version="1.1" xmlns="http://www.w3.org/2000/svg" xmlns:xlink="http://www.w3.org/1999/xlink">
    <!-- Generator: sketchtool 48.2 (47327) - http://www.bohemiancoding.com/sketch -->
    <title>279F8478-7A2F-4EAF-BDEE-A67B2D40CF18</title>
    <desc>Created with sketchtool.</desc>
    <defs>
        <polygon id="path-1" points="1.1409396e-05 0.0163781879 16.9835819 0.0163781879 16.9835819 17 1.1409396e-05 17"></polygon>
    </defs>
    <g id="01-Home_emi" stroke="none" stroke-width="1" fill="none" fill-rule="evenodd" transform="translate(-523.000000, -498.000000)">
        <g id="Page-1" transform="translate(523.000000, 498.000000)">
            <g id="Group-3">
                <mask id="mask-2" fill="white">
                    <use xlink:href="#path-1"></use>
                </mask>
                <g id="Clip-2"></g>
                <path d="M8.49179664,0.0163781879 C3.80190738,0.0163781879 1.1409396e-05,3.81833121 1.1409396e-05,8.50816342 C1.1409396e-05,10.0877372 0.4318,11.5662809 1.18299463,12.8330091 L0.539447651,16.4532104 L4.31333356,15.9019654 C5.54708859,16.6007339 6.97269262,17.0000057 8.49179664,17.0000057 C13.1816859,17.0000057 16.9835819,13.1980527 16.9835819,8.50816342 C16.9835819,3.81833121 13.1816859,0.0163781879 8.49179664,0.0163781879" id="Fill-1" fill="#FFFFFF" mask="url(#mask-2)"></path>
            </g>
            <path d="M4.21545294,12.886345 C4.07206628,12.5421723 4,12.2133205 4,11.9007075 C4,11.8292679 4.00642629,11.7771083 4.01927888,11.7444584 C4.03861513,11.6922989 4.16444424,11.5968739 4.39504487,11.456462 C4.62685043,11.3165665 4.91477129,11.1556122 5.259496,10.9729677 L5.77686994,10.6903651 C5.8095178,10.6704538 5.871543,10.6281639 5.96231438,10.5633804 C6.05360217,10.4977363 6.13496362,10.4491344 6.20639875,10.4163697 C6.2782929,10.3842936 6.34680177,10.3677678 6.41181061,10.3677678 C6.52943472,10.3677678 6.6822313,10.473751 6.87054463,10.6850287 C7.05960386,10.8964211 7.24516307,11.1099367 7.42716486,11.3247721 C7.6097978,11.5396074 7.75318446,11.6471972 7.85669367,11.6471972 C7.90299741,11.6471972 7.95630121,11.6355488 8.01832641,11.6127685 C8.08035161,11.589816 8.13072915,11.5688718 8.16980331,11.5495344 C8.20847582,11.5295657 8.26407473,11.4991536 8.33556724,11.4570932 C8.40746138,11.4144015 8.45313397,11.3868012 8.47247022,11.3739478 C9.11745197,11.0156593 9.6722935,10.6036621 10.1374538,10.138415 C10.6034174,9.67259415 11.0148149,9.11760284 11.3728512,8.47338371 C11.3857612,8.45341504 11.4139336,8.40831339 11.4559914,8.33641471 C11.4981639,8.26491769 11.5291478,8.20931527 11.5484841,8.17012389 C11.5683941,8.13144893 11.5895665,8.08106821 11.612288,8.01903909 C11.6350669,7.95700998 11.6461408,7.90318638 11.6461408,7.85751092 C11.6461408,7.77333264 11.579468,7.66379187 11.4461798,7.53043788 C11.3126047,7.39754294 11.1662918,7.27164851 11.0065525,7.15464817 C10.8472723,7.03764783 10.7010741,6.90876957 10.5669826,6.76904627 C10.4336371,6.62903605 10.3667921,6.5102569 10.3667921,6.41259403 C10.3667921,6.3469499 10.3833169,6.2790679 10.4160795,6.20716921 C10.4481536,6.13567219 10.497441,6.0543056 10.562335,5.96306944 C10.6273439,5.87166113 10.6700328,5.81026321 10.6893691,5.77738376 C10.7087053,5.73888095 10.7578206,5.64586597 10.8356246,5.49948644 C10.9141172,5.35264786 10.9954786,5.20448951 11.079709,5.05518353 C11.1646278,4.90541851 11.2505795,4.75094822 11.3389984,4.59119887 C11.4268435,4.43133474 11.508205,4.29958743 11.5830828,4.19549787 C11.6580179,4.09140831 11.711207,4.03276469 11.7439696,4.01985391 C11.7767896,4.00700051 11.8287737,4 11.9002662,4 C12.2128021,4 12.5416332,4.07207083 12.8863579,4.21546654 C13.1860412,4.35180435 13.4464208,4.65971206 13.6676689,5.13781251 C13.8888596,5.61654416 14,6.0414522 14,6.41259403 C14,6.51668359 13.9919098,6.62725723 13.9754424,6.74442972 C13.9590898,6.86143006 13.9427371,6.96092912 13.9269009,7.04229571 C13.9106057,7.1236623 13.881171,7.23073568 13.838482,7.36472087 C13.7963668,7.498247 13.7635469,7.59413105 13.7413991,7.65271729 C13.7186202,7.71124615 13.6775952,7.8184343 13.6190126,7.9746834 C13.5605449,8.13098988 13.5249134,8.22865275 13.5120034,8.26795889 C13.120975,9.33547939 12.4163779,10.3784407 11.3974662,11.3979331 C10.3786693,12.4163353 9.33520002,13.1209769 8.26768952,13.51203 C8.22901701,13.5249408 8.13130293,13.5605745 7.97506369,13.6195624 C7.81882445,13.6775748 7.71106929,13.7184877 7.65248675,13.7413828 C7.59407634,13.7642205 7.49802621,13.7964114 7.36456588,13.839103 C7.23122031,13.8812208 7.12352253,13.9106 7.04216107,13.9269537 C6.96079961,13.94325 6.86188061,13.9590872 6.74488765,13.9754408 C6.62772257,13.9919666 6.51652475,14 6.41244176,14 C6.04126598,14 5.61638475,13.8894264 5.13831448,13.6677053 C4.65961305,13.4463858 4.35235592,13.1859898 4.21545294,12.886345" id="Fill-4" fill="#4DC247"></path>
        </g>
    </g>
</svg>