<?xml version="1.0" encoding="UTF-8"?>
<svg width="15px" height="11px" viewBox="0 0 15 11" version="1.1" xmlns="http://www.w3.org/2000/svg" xmlns:xlink="http://www.w3.org/1999/xlink">
    <!-- Generator: sketchtool 48.2 (47327) - http://www.bohemiancoding.com/sketch -->
    <title>FDB43BFD-13AB-4E64-86D9-E265B0948941</title>
    <desc>Created with sketchtool.</desc>
    <defs></defs>
    <g id="01-Home_emi" stroke="none" stroke-width="1" fill="none" fill-rule="evenodd" transform="translate(-489.000000, -501.000000)">
        <g id="ic_email" transform="translate(488.000000, 499.000000)">
            <polygon id="Bounds" points="0 0 16 0 16 16 0 16"></polygon>
            <path d="M13.84,2.4 L2.96,2.4 C2.212,2.4 1.6068,2.985 1.6068,3.7 L1.6,11.5 C1.6,12.215 2.212,12.8 2.96,12.8 L13.84,12.8 C14.588,12.8 15.2,12.215 15.2,11.5 L15.2,3.7 C15.2,2.985 14.588,2.4 13.84,2.4 L13.84,2.4 Z M13.84,5 L8.4,8.25 L2.96,5 L2.96,3.7 L8.4,6.95 L13.84,3.7 L13.84,5 L13.84,5 Z" id="Icon" fill="#FFFFFF"></path>
        </g>
    </g>
</svg>