<?xml version="1.0" encoding="UTF-8"?>
<svg width="20px" height="20px" viewBox="0 0 20 20" version="1.1" xmlns="http://www.w3.org/2000/svg" xmlns:xlink="http://www.w3.org/1999/xlink">
    <!-- Generator: sketchtool 48.2 (47327) - http://www.bohemiancoding.com/sketch -->
    <title>6FE137DC-F0E0-4AF1-A674-B4FBF9DC2FBF</title>
    <desc>Created with sketchtool.</desc>
    <defs></defs>
    <g id="01-Home_emi" stroke="none" stroke-width="1" fill="none" fill-rule="evenodd" transform="translate(-262.000000, -1477.000000)">
        <g id="ic_photo_library-copy" transform="translate(260.000000, 1475.000000)">
            <polygon id="Bounds" points="0 0 24 0 24 24 0 24"></polygon>
            <path d="M22,16 L22,4 C22,2.9 21.1,2 20,2 L8,2 C6.9,2 6,2.9 6,4 L6,16 C6,17.1 6.9,18 8,18 L20,18 C21.1,18 22,17.1 22,16 L22,16 Z M11,12 L13.03,14.71 L16,11 L20,16 L8,16 L11,12 L11,12 Z M2,6 L2,20 C2,21.1 2.9,22 4,22 L18,22 L18,20 L4,20 L4,6 L2,6 L2,6 Z" id="Icon" fill="#F29400"></path>
        </g>
    </g>
</svg>