<?xml version="1.0" encoding="UTF-8"?>
<svg width="18px" height="18px" viewBox="0 0 18 18" version="1.1" xmlns="http://www.w3.org/2000/svg" xmlns:xlink="http://www.w3.org/1999/xlink">
    <!-- Generator: sketchtool 48.2 (47327) - http://www.bohemiancoding.com/sketch -->
    <title>926889B2-01BC-4F05-A016-81A93B7AF837</title>
    <desc>Created with sketchtool.</desc>
    <defs></defs>
    <g id="01-Home_emi" stroke="none" stroke-width="1" fill="none" fill-rule="evenodd" transform="translate(-900.000000, -872.000000)">
        <g id="ic_format_align_left" transform="translate(897.000000, 869.000000)">
            <polygon id="Bounds" points="0 0 24 0 24 24 0 24"></polygon>
            <path d="M15,15 L3,15 L3,17 L15,17 L15,15 L15,15 Z M15,7 L3,7 L3,9 L15,9 L15,7 L15,7 Z M3,13 L21,13 L21,11 L3,11 L3,13 L3,13 Z M3,21 L21,21 L21,19 L3,19 L3,21 L3,21 Z M3,3 L3,5 L21,5 L21,3 L3,3 L3,3 Z" id="Icon" fill="#F29400"></path>
        </g>
    </g>
</svg>