<?xml version="1.0" encoding="UTF-8"?>
<svg width="34px" height="34px" viewBox="0 0 34 34" version="1.1" xmlns="http://www.w3.org/2000/svg" xmlns:xlink="http://www.w3.org/1999/xlink">
    <!-- Generator: sketchtool 48.2 (47327) - http://www.bohemiancoding.com/sketch -->
    <title>016BA754-8632-44BD-9893-EC8C5473218E</title>
    <desc>Created with sketchtool.</desc>
    <defs>
        <polygon id="path-1" points="1.14087218e-20 0.089063679 1.14087218e-20 9.61753635 15.1525032 9.61753635 15.1525032 0.089063679"></polygon>
    </defs>
    <g id="10-Landing-formulario-leads" stroke="none" stroke-width="1" fill="none" fill-rule="evenodd" transform="translate(-319.000000, -334.000000)">
        <g id="Group-6" transform="translate(320.000000, 335.000000)">
            <circle id="Oval-2" stroke="#FFFFFF" cx="16" cy="16" r="16"></circle>
            <g id="Group-10-Copy-2" transform="translate(6.918919, 5.189189)">
                <g id="Page-1-Copy-2" transform="translate(1.729730, 1.729730)">
                    <g id="Group-8">
                        <path d="M10.3676174,5.27930448 L10.3676174,4.94998702 L10.3676174,4.35975422 C10.3676174,4.03607817 10.0081185,3.77093177 9.56947264,3.77093177 L8.77228147,3.77093177 C8.33458919,3.77093177 7.9750903,4.03607817 7.9750903,4.35975422 L7.9750903,5.27930448" id="Fill-1" fill="#FFFFFF"></path>
                        <path d="M13.2551501,1.50837271 L10.862623,3.77093177" id="Stroke-3" stroke="#FFFFFF" stroke-width="0.772"></path>
                        <path d="M5.28005978,1.50837271 L7.67258687,3.77093177" id="Stroke-5" stroke="#FFFFFF" stroke-width="0.772"></path>
                        <path d="M9.26760493,0 L9.28515013,3.01674542" id="Stroke-7" stroke="#FFFFFF" stroke-width="0.772"></path>
                        <g id="Group-11" transform="translate(0.000000, 5.644120)">
                            <mask id="mask-2" fill="white">
                                <use xlink:href="#path-1"></use>
                            </mask>
                            <g id="Clip-10"></g>
                            <path d="M9.64282346,4.17281367 L9.64282346,1.45086827 L10.3314282,1.45086827 L13.086689,4.17281367 L9.64282346,4.17281367 Z M11.3651771,8.59680683 C10.7927429,8.59680683 10.3314282,8.14093089 10.3314282,7.57524541 C10.3314282,7.01039183 10.7927429,6.55451589 11.3651771,6.55451589 C11.9367696,6.55451589 12.3980842,7.01039183 12.3980842,7.57524541 C12.3980842,8.14093089 11.9367696,8.59680683 11.3651771,8.59680683 Z M4.7628214,3.25856611 L3.83766662,3.25856611 L3.83766662,4.17281367 L2.94786807,4.17281367 L2.94786807,3.25856611 L2.02271329,3.25856611 L2.02271329,2.37842607 L2.94786807,2.37842607 L2.94786807,1.46501041 L3.83766662,1.46501041 L3.83766662,2.37842607 L4.7628214,2.37842607 L4.7628214,3.25856611 Z M3.44369716,8.59680683 C2.87210471,8.59680683 2.41079005,8.14093089 2.41079005,7.57524541 C2.41079005,7.01039183 2.87210471,6.55451589 3.44369716,6.55451589 C4.0152896,6.55451589 4.47744608,7.01039183 4.47744608,7.57524541 C4.47744608,8.14093089 4.0152896,8.59680683 3.44369716,8.59680683 Z M11.0208748,0.089063679 L1.37788293,0.089063679 C0.620249356,0.089063679 -0.000168363017,0.694679892 -0.000168363017,1.45086827 L-0.000168363017,7.57524541 L1.37788293,7.57524541 C1.37788293,8.69912935 2.30051227,9.61753635 3.44369716,9.61753635 C4.58772386,9.61753635 5.5103532,8.69912935 5.5103532,7.57524541 L9.29852109,7.57524541 C9.29852109,8.69912935 10.2211504,9.61753635 11.3651771,9.61753635 C12.508362,9.61753635 13.4309913,8.69912935 13.4309913,7.57524541 L15.1525032,7.57524541 L15.1525032,4.17281367 L11.0208748,0.089063679 Z" id="Fill-9" fill="#FFFFFF" mask="url(#mask-2)"></path>
                        </g>
                    </g>
                </g>
                <rect id="bounds-2-copy" stroke="#979797" opacity="0" x="0" y="0" width="19.027027" height="19.027027"></rect>
            </g>
        </g>
    </g>
</svg>