<?xml version="1.0" encoding="UTF-8"?>
<svg width="95px" height="95px" viewBox="0 0 95 95" version="1.1" xmlns="http://www.w3.org/2000/svg" xmlns:xlink="http://www.w3.org/1999/xlink">
    <!-- Generator: sketchtool 48.2 (47327) - http://www.bohemiancoding.com/sketch -->
    <title>FC3123C5-4594-4E30-9889-A02D9001DE3C</title>
    <desc>Created with sketchtool.</desc>
    <defs>
        <polygon id="path-1" points="0 0.4981 51.4507 0.4981 51.4507 44 0 44"></polygon>
    </defs>
    <g id="10-Landing-formulario-leads" stroke="none" stroke-width="1" fill="none" fill-rule="evenodd" transform="translate(-304.000000, -1385.000000)">
        <g id="Group-2" transform="translate(305.000000, 1386.000000)">
            <g id="Page-1" transform="translate(21.000000, 24.000000)">
                <g id="Group-3" transform="translate(0.000000, 0.501700)">
                    <mask id="mask-2" fill="white">
                        <use xlink:href="#path-1"></use>
                    </mask>
                    <g id="Clip-2"></g>
                    <path d="M48.5677,34.3751 L30.1057,34.3751 L21.3457,34.3751 L2.8827,34.3751 C2.5637,34.3751 2.3037,34.1141 2.3037,33.7931 L2.3037,30.9201 L49.1477,30.9201 L49.1477,33.7931 C49.1477,34.1141 48.8867,34.3751 48.5677,34.3751 Z M31.5137,41.6961 L19.9357,41.6961 C21.0497,40.1951 21.8507,38.4741 22.2717,36.6791 L29.1797,36.6791 C29.6007,38.4761 30.4017,40.1961 31.5137,41.6961 Z M2.8827,2.8021 L48.5677,2.8021 C48.8867,2.8021 49.1477,3.0631 49.1477,3.3821 L49.1477,6.2571 L2.3037,6.2571 L2.3037,3.3821 C2.3037,3.0631 2.5637,2.8021 2.8827,2.8021 Z M2.3037,28.6171 L49.1477,28.6171 L49.1477,8.5611 L2.3037,8.5611 L2.3037,28.6171 Z M48.5677,0.4981 L2.8827,0.4981 C1.2937,0.4981 -0.0003,1.7921 -0.0003,3.3821 L-0.0003,33.7931 C-0.0003,35.3851 1.2937,36.6791 2.8827,36.6791 L19.8897,36.6791 C19.4747,38.1231 18.7637,39.4971 17.8067,40.6861 L16.6467,42.1251 C16.3687,42.4711 16.3137,42.9451 16.5047,43.3461 C16.6957,43.7451 17.0997,44.0001 17.5437,44.0001 L33.9067,44.0001 C34.3507,44.0001 34.7547,43.7451 34.9447,43.3461 C35.1367,42.9451 35.0817,42.4711 34.8037,42.1251 L33.6437,40.6861 C32.6877,39.4981 31.9767,38.1251 31.5617,36.6791 L48.5677,36.6791 C50.1577,36.6791 51.4507,35.3851 51.4507,33.7931 L51.4507,3.3821 C51.4507,1.7921 50.1577,0.4981 48.5677,0.4981 Z" id="Fill-1" fill="#4C4C4C" mask="url(#mask-2)"></path>
                </g>
                <polyline id="Stroke-4" stroke="#4C4C4C" stroke-width="2" stroke-linecap="round" points="6.7254 20.5565 14.7254 20.5565 19.8924 14.8895 26.7254 21.4735 32.1424 16.6205 34.5134 19.5565 43.7254 19.5565"></polyline>
            </g>
            <circle id="Oval-2" stroke="#4C4C4C" stroke-width="2" cx="46.5" cy="46.5" r="46.5"></circle>
        </g>
    </g>
</svg>