<?xml version="1.0" encoding="UTF-8"?>
<svg width="34px" height="34px" viewBox="0 0 34 34" version="1.1" xmlns="http://www.w3.org/2000/svg" xmlns:xlink="http://www.w3.org/1999/xlink">
    <!-- Generator: sketchtool 48.2 (47327) - http://www.bohemiancoding.com/sketch -->
    <title>4DAC222C-1F91-4ABE-8856-5E4C728B01F7</title>
    <desc>Created with sketchtool.</desc>
    <defs></defs>
    <g id="10-Landing-formulario-leads" stroke="none" stroke-width="1" fill="none" fill-rule="evenodd" transform="translate(-319.000000, -420.000000)">
        <g id="Group-6-Copy-2" transform="translate(320.000000, 421.000000)">
            <circle id="Oval-2" stroke="#FFFFFF" cx="16" cy="16" r="16"></circle>
            <g id="ic_person-copy" transform="translate(9.513514, 7.783784)" fill="#FFFFFF">
                <path d="M4.21576502,2.60000154 C4.18570512,2.45439025 4.16988417,2.303287 4.16988417,2.14831776 C4.16988417,0.962770397 5.10069026,0 6.2483832,0 C7.39456998,0 8.32537606,0.962770397 8.32537606,2.14831776 C8.32537606,2.29998118 8.3102229,2.4479418 8.28140261,2.59067547 C9.15866508,3.2429337 9.72972973,4.30774859 9.72972973,5.51115768 C9.72972973,7.49697156 8.17471042,9.10539094 6.25482625,9.10539094 C4.33494208,9.10539094 2.77992278,7.49697156 2.77992278,5.51115768 C2.77992278,4.31346691 3.34557318,3.25305634 4.21576502,2.60000154 Z M6.25482625,3.35461772 C6.89453832,3.35461772 7.41312741,2.81822003 7.41312741,2.15653996 C7.41312741,1.49485989 6.89453832,0.958462205 6.25482625,0.958462205 C5.61511419,0.958462205 5.0965251,1.49485989 5.0965251,2.15653996 C5.0965251,2.81822003 5.61511419,3.35461772 6.25482625,3.35461772 Z M6.48648649,10.535641 C4.32162162,10.535641 0,11.6594379 0,13.8902587 L0,15.5675676 L12.972973,15.5675676 L12.972973,13.8902587 C12.972973,11.6594379 8.65135135,10.535641 6.48648649,10.535641 L6.48648649,10.535641 Z" id="Icon"></path>
            </g>
        </g>
    </g>
</svg>