<?xml version="1.0" encoding="UTF-8"?>
<svg width="30px" height="30px" viewBox="0 0 30 30" version="1.1" xmlns="http://www.w3.org/2000/svg" xmlns:xlink="http://www.w3.org/1999/xlink">
    <!-- Generator: sketchtool 48.2 (47327) - http://www.bohemiancoding.com/sketch -->
    <title>46023AB6-6B6E-4A28-802E-9E3302C34E60</title>
    <desc>Created with sketchtool.</desc>
    <defs></defs>
    <g id="Footer_emi" stroke="none" stroke-width="1" fill="none" fill-rule="evenodd" transform="translate(-1099.000000, -47.000000)">
        <path d="M1114,77 C1105.71573,77 1099,70.2842712 1099,62 C1099,53.7157288 1105.71573,47 1114,47 C1122.28427,47 1129,53.7157288 1129,62 C1129,70.2842712 1122.28427,77 1114,77 Z M1112.7869,69 L1115.35964,69 L1115.35964,62.4307673 L1117.88511,62.4307673 L1118,60.0655678 L1115.35964,60.0655678 L1115.35964,58.338542 C1115.35964,57.6863285 1115.50013,57.2934687 1116.37723,57.2934687 C1117.18763,57.2934687 1117.93028,57.3004887 1117.93028,57.3004887 L1117.98766,55.0917694 C1117.98766,55.0917694 1117.25945,55 1116.27455,55 C1113.84244,55 1112.7869,56.4578441 1112.7869,58.045365 L1112.7869,60.0655678 L1111,60.0655678 L1111,62.4307673 L1112.7869,62.4307673 L1112.7869,69 Z" id="Combined-Shape" fill="#FFFFFF"></path>
    </g>
</svg>