<?xml version="1.0" encoding="UTF-8"?>
<svg width="95px" height="95px" viewBox="0 0 95 95" version="1.1" xmlns="http://www.w3.org/2000/svg" xmlns:xlink="http://www.w3.org/1999/xlink">
    <!-- Generator: sketchtool 48.2 (47327) - http://www.bohemiancoding.com/sketch -->
    <title>10892032-D5CC-41BA-9000-9AE8B5C446AD</title>
    <desc>Created with sketchtool.</desc>
    <defs>
        <polygon id="path-1" points="0.0003 0.2442 45.671 0.2442 45.671 49.9992 0.0003 49.9992"></polygon>
    </defs>
    <g id="10-Landing-formulario-leads" stroke="none" stroke-width="1" fill="none" fill-rule="evenodd" transform="translate(-1042.000000, -1388.000000)">
        <g id="Group-7" transform="translate(1043.000000, 1389.000000)">
            <g id="Page-1" transform="translate(29.000000, 21.000000)">
                <g id="Group-3" transform="translate(0.000000, 0.756500)">
                    <mask id="mask-2" fill="white">
                        <use xlink:href="#path-1"></use>
                    </mask>
                    <g id="Clip-2"></g>
                    <path d="M40.1313,20.2262 C38.3013,20.2262 36.8113,18.7362 36.8113,16.9052 C36.8113,15.0742 38.3013,13.5832 40.1313,13.5832 C41.9643,13.5832 43.4533,15.0742 43.4533,16.9052 C43.4533,18.7362 41.9643,20.2262 40.1313,20.2262 Z M33.3563,17.5892 C32.9783,17.5892 32.6703,17.2822 32.6703,16.9042 C32.6703,16.5272 32.9793,16.2182 33.3563,16.2182 L34.6403,16.2182 C34.6113,16.4442 34.5933,16.6722 34.5933,16.9042 C34.5933,17.1362 34.6113,17.3642 34.6403,17.5892 L33.3563,17.5892 Z M6.5203,32.9652 L6.3783,32.2382 C7.1333,32.4512 7.9273,32.5732 8.7503,32.5732 C9.5723,32.5732 10.3663,32.4512 11.1223,32.2382 L10.9823,32.9582 C10.5283,35.2182 9.8043,35.3872 8.7503,35.3872 C7.6823,35.3872 6.8983,35.2152 6.5203,32.9652 Z M2.2223,23.8252 L2.2223,23.5412 C3.8253,25.3422 6.1533,26.4852 8.7483,26.4852 C11.3463,26.4852 13.6763,25.3412 15.2793,23.5382 L15.2793,23.8252 C15.2793,27.4262 12.3503,30.3562 8.7503,30.3562 C5.1503,30.3552 2.2223,27.4262 2.2223,23.8252 Z M3.8853,2.4612 C4.3463,2.4612 4.7223,2.8362 4.7223,3.2972 C4.7223,3.7582 4.3463,4.1332 3.8853,4.1332 C3.4243,4.1332 3.0493,3.7592 3.0493,3.2972 C3.0493,2.8362 3.4243,2.4612 3.8853,2.4612 Z M12.9683,3.2972 C12.9683,2.8362 13.3443,2.4612 13.8043,2.4612 C14.2663,2.4612 14.6413,2.8362 14.6413,3.2972 C14.6413,3.7582 14.2663,4.1332 13.8043,4.1332 C13.3443,4.1332 12.9683,3.7582 12.9683,3.2972 Z M40.1313,11.3652 C38.1433,11.3652 36.4013,12.4222 35.4233,14.0012 L33.3563,14.0012 C32.1323,14.0012 31.0883,14.7642 30.6623,15.8372 C26.2723,16.2492 22.8233,19.9542 22.8233,24.4492 L22.8233,41.3462 C22.8233,44.8952 19.9363,47.7822 16.3873,47.7822 C12.8393,47.7822 9.9523,44.8952 9.9523,41.3462 L9.9523,37.4792 C11.6683,37.0932 12.6763,35.7902 13.1573,33.3892 L13.6043,31.0962 C15.9483,29.5262 17.4963,26.8532 17.4963,23.8252 L17.4963,9.4352 C17.4963,7.8862 17.0943,6.3612 16.3393,5.0002 C16.6673,4.5132 16.8603,3.9282 16.8603,3.2972 C16.8603,1.6132 15.4893,0.2442 13.8053,0.2442 C12.1213,0.2442 10.7513,1.6142 10.7513,3.2972 C10.7513,4.9822 12.1213,6.3522 13.8053,6.3522 C14.0473,6.3522 14.2803,6.3222 14.5073,6.2672 C15.0133,7.2492 15.2793,8.3352 15.2793,9.4352 L15.2793,17.7362 C15.2793,21.3352 12.3503,24.2662 8.7483,24.2662 C5.1693,24.2662 2.2573,21.3712 2.2223,17.7992 L2.2223,9.4352 C2.2223,8.3082 2.5133,7.2092 3.0613,6.2362 C3.3223,6.3102 3.5993,6.3522 3.8853,6.3522 C5.5683,6.3522 6.9403,4.9822 6.9403,3.2972 C6.9403,1.6132 5.5683,0.2442 3.8853,0.2442 C2.2003,0.2442 0.8303,1.6132 0.8303,3.2972 C0.8303,3.8792 0.9973,4.4222 1.2823,4.8862 C0.4463,6.2552 0.0033,7.8242 0.0033,9.4352 L0.0033,17.7032 C0.0033,17.7132 0.0003,17.7232 0.0003,17.7352 C0.0003,17.7562 0.0023,17.7782 0.0033,17.7992 L0.0033,23.8242 C0.0033,26.8532 1.5523,29.5252 3.8973,31.0962 L4.3383,33.3602 C4.7543,35.8392 5.8453,37.1822 7.7353,37.5172 L7.7353,41.3462 C7.7353,46.1182 11.6153,49.9992 16.3873,49.9992 C21.1593,49.9992 25.0423,46.1182 25.0423,41.3462 L25.0423,24.4492 C25.0423,21.1642 27.5173,18.4522 30.6983,18.0652 C31.1483,19.0892 32.1683,19.8072 33.3563,19.8072 L35.4233,19.8072 C36.4013,21.3872 38.1433,22.4442 40.1313,22.4442 C43.1863,22.4442 45.6713,19.9592 45.6713,16.9042 C45.6713,13.8502 43.1863,11.3652 40.1313,11.3652 Z" id="Fill-1" fill="#4C4C4C" mask="url(#mask-2)"></path>
                </g>
                <path d="M40.1293,16.013 C41.0393,16.013 41.7763,16.75 41.7763,17.66 C41.7763,18.571 41.0393,19.308 40.1293,19.308 C39.2193,19.308 38.4823,18.571 38.4823,17.66 C38.4823,16.75 39.2193,16.013 40.1293,16.013" id="Fill-4" fill="#4C4C4C"></path>
            </g>
            <circle id="Oval-2" stroke="#4C4C4C" stroke-width="2" cx="46.5" cy="46.5" r="46.5"></circle>
        </g>
    </g>
</svg>