<?xml version="1.0" encoding="UTF-8"?>
<svg width="95px" height="95px" viewBox="0 0 95 95" version="1.1" xmlns="http://www.w3.org/2000/svg" xmlns:xlink="http://www.w3.org/1999/xlink">
    <!-- Generator: sketchtool 48.2 (47327) - http://www.bohemiancoding.com/sketch -->
    <title>01CA6783-1730-44E7-A2FD-E6E38BD9B25F</title>
    <desc>Created with sketchtool.</desc>
    <defs>
        <polygon id="path-1" points="0.000103252523 -0.0002 47.098 -0.0002 47.098 55.4617 0.000103252523 55.4617"></polygon>
    </defs>
    <g id="10-Landing-formulario-leads" stroke="none" stroke-width="1" fill="none" fill-rule="evenodd" transform="translate(-550.000000, -1385.000000)">
        <g id="Group-5" transform="translate(551.000000, 1386.000000)">
            <circle id="Oval-2" stroke="#4C4C4C" stroke-width="2" cx="46.5" cy="46.5" r="46.5"></circle>
            <g id="Page-1" transform="translate(22.000000, 21.000000)">
                <mask id="mask-2" fill="white">
                    <use xlink:href="#path-1"></use>
                </mask>
                <g id="Clip-2"></g>
                <path d="M25.6524967,42.406 C25.6514967,42.406 25.6494967,42.405 25.6474967,42.405 C25.6454967,42.405 25.6444967,42.406 25.6424967,42.406 C19.7804967,42.404 14.2684967,40.121 10.1234967,35.975 C1.88349675,27.736 1.57849675,14.525 9.19849675,5.913 L11.3874967,8.101 C4.96749675,15.506 5.27049675,26.757 12.3054967,33.792 C15.8694967,37.356 20.6084967,39.319 25.6484967,39.319 C30.2344967,39.319 34.5684967,37.689 37.9974967,34.71 L40.1854967,36.898 C36.1714967,40.457 31.0624967,42.405 25.6524967,42.406 Z M41.7724967,21.11 C41.3734967,21.057 40.9554967,21.177 40.6454967,21.482 L39.6524967,22.461 L39.1224967,21.885 L37.1254967,17.202 C36.8664967,16.593 36.2034967,16.261 35.5584967,16.419 L33.0214967,17.041 L32.2424967,15.915 L32.9244967,12.228 L38.5254967,10.711 C40.8394967,13.766 41.9204967,17.455 41.7724967,21.11 Z M26.9204967,4.339 C28.4824967,4.461 29.9994967,4.803 31.4344967,5.353 L27.4714967,6.54 L26.9204967,4.339 Z M26.0914967,31.868 C25.8294967,31.89 25.5624967,31.913 25.3134967,31.933 C25.0484967,30.568 24.6094967,28.034 24.2294967,25.717 C24.1714967,25.357 23.9694967,25.037 23.6724967,24.828 L22.5304967,24.027 L21.1514967,22.396 L23.0804967,21.166 L26.8374967,21.823 L27.3834967,23.63 L25.9204967,27.162 C25.8394967,27.354 25.8054967,27.562 25.8204967,27.769 L26.0914967,31.868 Z M15.5054967,23.173 C15.6224967,23.216 15.7474967,23.243 15.8764967,23.253 L15.8794967,23.253 L15.8824967,23.253 L15.8854967,23.253 L15.8884967,23.253 L15.8914967,23.253 L18.4614967,23.404 L20.5774967,25.907 C20.6524967,25.996 20.7384967,26.074 20.8334967,26.14 L21.6524967,26.716 C21.7684967,27.411 21.9774967,28.655 22.1944967,29.899 C22.3584967,30.841 22.5274967,31.782 22.6664967,32.487 C22.8924967,33.644 23.1084967,34.743 24.1774967,34.743 C24.2544967,34.743 24.3364967,34.738 24.4224967,34.726 C24.6544967,34.702 27.6424967,34.453 27.6424967,34.453 C28.3784967,34.391 28.9284967,33.751 28.8804967,33.014 L28.5404967,27.906 L30.0684967,24.219 C30.1884967,23.929 30.2044967,23.607 30.1134967,23.308 L29.1834967,20.242 C29.0364967,19.754 28.6264967,19.39 28.1234967,19.302 L23.0294967,18.411 C22.6974967,18.35 22.3544967,18.421 22.0694967,18.602 L18.7604967,20.713 L18.3074967,20.685 L19.4564967,18.817 C19.5164967,18.719 19.5634967,18.615 19.5974967,18.506 L21.5494967,12.137 C21.6784967,11.716 21.5944967,11.259 21.3244967,10.911 L18.7124967,7.552 C18.5274967,7.313 18.2664967,7.144 17.9734967,7.07 L16.9604967,6.816 C19.1144967,5.438 21.5604967,4.593 24.1354967,4.357 L25.1924967,8.57 C25.2814967,8.929 25.5144967,9.235 25.8354967,9.417 C26.0414967,9.534 26.2714967,9.594 26.5044967,9.594 C26.6334967,9.594 26.7644967,9.576 26.8914967,9.537 L34.4574967,7.271 C34.5774967,7.235 34.6844967,7.179 34.7864967,7.115 C35.3784967,7.523 35.9484967,7.97 36.4884967,8.46 L31.3964967,9.84 C30.8944967,9.975 30.5144967,10.387 30.4204967,10.899 L29.4794967,15.975 C29.4144967,16.329 29.4924967,16.695 29.6974967,16.991 L31.3274967,19.345 C31.6454967,19.806 32.2144967,20.024 32.7614967,19.89 L35.0874967,19.319 L36.7244967,23.161 C36.7854967,23.303 36.8704967,23.434 36.9744967,23.548 L38.6124967,25.323 C38.8604967,25.593 39.2084967,25.75 39.5744967,25.758 C39.5854967,25.759 39.5954967,25.759 39.6064967,25.759 C39.9614967,25.759 40.3024967,25.619 40.5554967,25.369 L41.2224967,24.712 C40.5084967,27.338 39.1354967,29.821 37.0774967,31.88 C34.0244967,34.932 29.9654967,36.614 25.6484967,36.614 C21.3304967,36.614 17.2714967,34.932 14.2184967,31.88 C11.2124967,28.873 9.65749675,24.968 9.51949675,21.02 L15.5054967,23.173 Z M14.2174967,9.02 C14.2174967,9.019 14.2184967,9.019 14.2184967,9.019 C14.2184967,9.018 14.2194967,9.018 14.2194967,9.017 C14.2474967,8.99 14.2764967,8.966 14.3024967,8.938 L16.8624967,9.581 L18.7564967,12.016 L17.0614967,17.548 L15.3944967,20.259 L9.66649675,18.199 C10.1344967,14.84 11.6394967,11.598 14.2174967,9.02 Z M39.9094967,32.797 C46.3274967,25.394 46.0244967,14.143 38.9904967,7.107 C35.4264967,3.544 30.6874967,1.581 25.6474967,1.581 C25.5164967,1.581 25.3864967,1.587 25.2564967,1.59 C25.1764967,1.585 25.0964967,1.587 25.0154967,1.595 C20.6644967,1.738 16.5694967,3.347 13.2994967,6.187 L5.50749675,-1.604 C4.97949675,-2.132 4.12249675,-2.132 3.59449675,-1.604 C3.06649675,-1.075 3.06649675,-0.219 3.59449675,0.309 L7.28149675,3.995 C-1.39250325,13.666 -1.08350325,28.593 8.21049675,37.888 C12.5474967,42.225 18.2164967,44.745 24.2954967,45.072 L24.2954967,50.757 L16.4024967,50.757 C15.6554967,50.757 15.0504967,51.363 15.0504967,52.109 C15.0504967,52.856 15.6554967,53.462 16.4024967,53.462 L34.8924967,53.462 C35.6394967,53.462 36.2454967,52.856 36.2454967,52.109 C36.2454967,51.363 35.6394967,50.757 34.8924967,50.757 L27.0004967,50.757 L27.0004967,45.072 C32.6314967,44.77 37.9084967,42.584 42.1024967,38.816 L45.7894967,42.503 C46.0524967,42.767 46.3994967,42.899 46.7454967,42.899 C47.0914967,42.899 47.4374967,42.767 47.7024967,42.503 C48.2304967,41.974 48.2304967,41.119 47.7024967,40.591 L39.9094967,32.797 Z" id="Fill-1" fill="#4C4C4C" mask="url(#mask-2)"></path>
            </g>
        </g>
    </g>
</svg>