<?xml version="1.0" encoding="UTF-8"?>
<svg width="14px" height="11px" viewBox="0 0 14 11" version="1.1" xmlns="http://www.w3.org/2000/svg" xmlns:xlink="http://www.w3.org/1999/xlink">
    <!-- Generator: sketchtool 48.2 (47327) - http://www.bohemiancoding.com/sketch -->
    <title>380DABB5-4B70-491F-88D7-FC5611D144C4</title>
    <desc>Created with sketchtool.</desc>
    <defs></defs>
    <g id="01-Home_emi" stroke="none" stroke-width="1" fill="none" fill-rule="evenodd" transform="translate(-453.000000, -502.000000)">
        <path d="M465.35038,503.739375 C465.94328,503.395709 466.39877,502.851516 466.61325,502.203032 C466.05822,502.521318 465.44355,502.752369 464.78926,502.876895 C464.26538,502.337168 463.5189,502 462.69276,502 C461.10656,502 459.82045,503.2433 459.82045,504.776868 C459.82045,504.994518 459.84586,505.206483 459.89486,505.409718 C457.50772,505.293923 455.39127,504.188346 453.97468,502.508257 C453.72744,502.918381 453.58576,503.395439 453.58576,503.904372 C453.58576,504.867826 454.09284,505.717786 454.86354,506.215755 C454.39272,506.20134 453.94983,506.076408 453.56259,505.868435 C453.56231,505.880008 453.56231,505.891581 453.56231,505.903357 C453.56231,507.248782 454.55239,508.371142 455.86636,508.626286 C455.62535,508.689767 455.3716,508.723741 455.10966,508.723741 C454.92458,508.723741 454.74461,508.70628 454.56926,508.673863 C454.93473,509.777071 455.99544,510.579995 457.25236,510.602328 C456.26935,511.347185 455.03091,511.791148 453.68516,511.791148 C453.45332,511.791148 453.2247,511.777951 453,511.752301 C454.27113,512.5402 455.78089,513 457.40293,513 C462.68604,513 465.57515,508.768544 465.57515,505.098877 C465.57515,504.978479 465.57228,504.858757 465.56675,504.739645 C466.12801,504.348064 466.61493,503.859028 467,503.302112 C466.48494,503.52301 465.93131,503.672306 465.35038,503.739375 Z" id="icon" fill="#FFFFFF"></path>
    </g>
</svg>