<?xml version="1.0" encoding="UTF-8"?>
<svg width="30px" height="30px" viewBox="0 0 30 30" version="1.1" xmlns="http://www.w3.org/2000/svg" xmlns:xlink="http://www.w3.org/1999/xlink">
    <!-- Generator: sketchtool 48.2 (47327) - http://www.bohemiancoding.com/sketch -->
    <title>4B8D2B46-6ACF-41EA-BFE0-CBF35F7E163B</title>
    <desc>Created with sketchtool.</desc>
    <defs></defs>
    <g id="Footer_emi" stroke="none" stroke-width="1" fill="none" fill-rule="evenodd" transform="translate(-1134.000000, -47.000000)">
        <path d="M1149,77 C1140.71573,77 1134,70.2842712 1134,62 C1134,53.7157288 1140.71573,47 1149,47 C1157.28427,47 1164,53.7157288 1164,62 C1164,70.2842712 1157.28427,77 1149,77 Z M1155.00919,60.4791376 C1155.08625,58.7859104 1154.45633,57.9197336 1153.12048,57.8806072 C1151.31902,57.8225923 1150.09831,58.8388284 1149.45925,60.9311146 C1149.78935,60.7896001 1150.1103,60.7179433 1150.42152,60.7179433 C1151.08277,60.7179433 1151.37449,61.0895689 1151.29654,61.8313208 C1151.25726,62.2807493 1150.96554,62.9346544 1150.42152,63.7939353 C1149.87644,64.6538159 1149.46749,65.0834564 1149.19571,65.0834564 C1148.84537,65.0834564 1148.52441,64.4216062 1148.23239,63.0964067 C1148.1345,62.7078414 1147.95955,61.7146913 1147.70695,60.117556 C1147.47325,58.6375 1146.85052,57.9461176 1145.83908,58.043259 C1145.41094,58.0825352 1144.76813,58.4715503 1143.91245,59.2106038 C1143.28987,59.7750129 1142.65711,60.3386724 1142.01549,60.9021821 L1142.62682,61.6898063 C1143.20967,61.2823524 1143.54997,61.077726 1143.64726,61.077726 C1144.09354,61.077726 1144.51059,61.7776532 1144.89975,63.1758587 C1145.24964,64.458334 1145.59923,65.7408093 1145.94897,67.0232847 C1146.47275,68.4222396 1147.11391,69.1214173 1147.87201,69.1214173 C1149.09497,69.1214173 1150.59031,67.9726612 1152.35775,65.6760484 C1154.06761,63.4768768 1154.95118,61.7443733 1155.00919,60.4791376 Z" id="Combined-Shape" fill="#FFFFFF"></path>
    </g>
</svg>