<?xml version="1.0" encoding="UTF-8"?>
<svg width="95px" height="95px" viewBox="0 0 95 95" version="1.1" xmlns="http://www.w3.org/2000/svg" xmlns:xlink="http://www.w3.org/1999/xlink">
    <!-- Generator: sketchtool 48.2 (47327) - http://www.bohemiancoding.com/sketch -->
    <title>3178A347-D2D2-4A9E-9C4C-EE2EC7E69C2F</title>
    <desc>Created with sketchtool.</desc>
    <defs>
        <polygon id="path-1" points="0 0.418 56.823 0.418 56.823 37 0 37"></polygon>
    </defs>
    <g id="10-Landing-formulario-leads" stroke="none" stroke-width="1" fill="none" fill-rule="evenodd" transform="translate(-796.000000, -1388.000000)">
        <g id="Group-6" transform="translate(797.000000, 1389.000000)">
            <circle id="Oval-2" stroke="#4C4C4C" stroke-width="2" cx="46.5" cy="46.5" r="46.5"></circle>
            <g id="Page-1" transform="translate(20.000000, 28.000000)">
                <g id="Group-3" transform="translate(0.000000, 0.582000)">
                    <mask id="mask-2" fill="white">
                        <use xlink:href="#path-1"></use>
                    </mask>
                    <g id="Clip-2"></g>
                    <path d="M35.1396,7.458 L37.5246,7.458 L37.2096,6.198 L35.4546,6.198 L35.1396,7.458 Z M35.7016,17.139 L45.7146,17.139 L43.2326,13.238 L35.7016,13.238 L35.7016,17.139 Z M2.2596,18.019 L29.9216,18.019 L29.9216,2.678 L2.2596,2.678 L2.2596,18.019 Z M2.2596,22.419 L29.9216,22.419 L29.9216,20.279 L2.2596,20.279 L2.2596,22.419 Z M16.2186,30.34 L29.9216,30.34 L29.9216,24.68 L2.2596,24.68 L2.2596,30.34 L5.4026,30.34 C5.9346,27.777 8.1766,25.939 10.8106,25.939 C13.4446,25.939 15.6866,27.777 16.2186,30.34 Z M51.4206,30.34 L54.5636,30.34 L54.5636,21.725 L47.5906,19.399 L34.5726,19.399 C33.9496,19.399 33.4426,18.893 33.4426,18.269 L33.4426,12.108 C33.4426,11.485 33.9496,10.979 34.5726,10.979 L41.7936,10.979 L40.9926,9.719 L32.1816,9.719 L32.1816,30.34 L40.6046,30.34 C41.1366,27.777 43.3786,25.939 46.0126,25.939 C48.6476,25.939 50.8896,27.777 51.4206,30.34 Z M10.8106,28.199 C9.0066,28.199 7.5396,29.666 7.5396,31.47 C7.5396,33.273 9.0066,34.74 10.8106,34.74 C12.6146,34.74 14.0806,33.273 14.0806,31.47 C14.0806,29.666 12.6146,28.199 10.8106,28.199 Z M46.0126,28.199 C44.2096,28.199 42.7436,29.666 42.7436,31.47 C42.7436,33.273 44.2096,34.74 46.0126,34.74 C47.8156,34.74 49.2826,33.273 49.2836,31.472 C49.2826,29.666 47.8156,28.199 46.0126,28.199 Z M46.0126,37 C43.3786,37 41.1366,35.162 40.6046,32.6 L16.2186,32.6 C15.6866,35.162 13.4446,37 10.8106,37 C8.1766,37 5.9346,35.162 5.4026,32.6 L1.1296,32.6 C0.5066,32.6 -0.0004,32.093 -0.0004,31.47 L-0.0004,1.548 C-0.0004,0.925 0.5066,0.418 1.1296,0.418 L31.0516,0.418 C31.6746,0.418 32.1816,0.925 32.1816,1.548 L32.1816,7.458 L32.8096,7.458 L33.4766,4.795 C33.6016,4.291 34.0526,3.938 34.5726,3.938 L38.0926,3.938 C38.6126,3.938 39.0636,4.291 39.1886,4.795 L39.8556,7.458 L41.6126,7.458 C42.0006,7.458 42.3576,7.654 42.5656,7.982 L48.5096,17.324 L56.0506,19.838 C56.5126,19.991 56.8236,20.422 56.8236,20.909 L56.8236,31.47 C56.8236,32.093 56.3166,32.6 55.6936,32.6 L51.4206,32.6 C50.8896,35.162 48.6476,37 46.0126,37 Z" id="Fill-1" fill="#4C4C4C" mask="url(#mask-2)"></path>
                </g>
                <path d="M12.5703,10.0507 L14.3313,10.0507 C14.8163,10.0507 15.2113,9.6567 15.2113,9.1697 L15.2113,7.4097 L16.9703,7.4097 L16.9703,9.1697 C16.9703,9.6567 17.3653,10.0507 17.8513,10.0507 L19.6113,10.0507 L19.6113,11.8107 L17.8513,11.8107 C17.3653,11.8107 16.9703,12.2037 16.9703,12.6907 L16.9703,14.4507 L15.2113,14.4507 L15.2113,12.6907 C15.2113,12.2037 14.8163,11.8107 14.3313,11.8107 L12.5703,11.8107 L12.5703,10.0507 Z M13.4513,13.5707 L13.4513,15.3307 C13.4513,15.8177 13.8443,16.2107 14.3313,16.2107 L17.8513,16.2107 C18.3373,16.2107 18.7313,15.8177 18.7313,15.3307 L18.7313,13.5707 L20.4913,13.5707 C20.9773,13.5707 21.3713,13.1777 21.3713,12.6907 L21.3713,9.1697 C21.3713,8.6837 20.9773,8.2897 20.4913,8.2897 L18.7313,8.2897 L18.7313,6.5297 C18.7313,6.0437 18.3373,5.6507 17.8513,5.6507 L14.3313,5.6507 C13.8443,5.6507 13.4513,6.0437 13.4513,6.5297 L13.4513,8.2897 L11.6903,8.2897 C11.2053,8.2897 10.8103,8.6837 10.8103,9.1697 L10.8103,12.6907 C10.8103,13.1777 11.2053,13.5707 11.6903,13.5707 L13.4513,13.5707 Z" id="Fill-4" fill="#4C4C4C"></path>
            </g>
        </g>
    </g>
</svg>