<?xml version="1.0" encoding="UTF-8"?>
<svg width="30px" height="30px" viewBox="0 0 30 30" version="1.1" xmlns="http://www.w3.org/2000/svg" xmlns:xlink="http://www.w3.org/1999/xlink">
    <!-- Generator: sketchtool 48.2 (47327) - http://www.bohemiancoding.com/sketch -->
    <title>5E64E565-13F8-4978-A6F2-377906AB6732</title>
    <desc>Created with sketchtool.</desc>
    <defs></defs>
    <g id="Footer_emi" stroke="none" stroke-width="1" fill="none" fill-rule="evenodd" transform="translate(-1169.000000, -47.000000)">
        <path d="M1184,77 C1175.71573,77 1169,70.2842712 1169,62 C1169,53.7157288 1175.71573,47 1184,47 C1192.28427,47 1199,53.7157288 1199,62 C1199,70.2842712 1192.28427,77 1184,77 Z M1183.08066,64.1468779 L1183.08066,59.8531221 L1186.76812,62.0000589 L1183.08066,64.1468779 Z M1191.30016,58.5550401 C1191.13683,57.9392228 1190.65595,57.4541798 1190.04515,57.2895927 C1188.9384,56.990579 1184.49994,56.990579 1184.49994,56.990579 C1184.49994,56.990579 1180.0616,56.990579 1178.95485,57.2895927 C1178.34405,57.4541798 1177.86317,57.9392228 1177.69984,58.5550401 C1177.40332,59.6712163 1177.40332,61.9999411 1177.40332,61.9999411 C1177.40332,61.9999411 1177.40332,64.3287837 1177.69984,65.4449599 C1177.86317,66.0607772 1178.34405,66.5457024 1178.95485,66.7104073 C1180.0616,67.009421 1184.49994,67.009421 1184.49994,67.009421 C1184.49994,67.009421 1188.9384,67.009421 1190.04515,66.7104073 C1190.65595,66.5457024 1191.13683,66.0607772 1191.30016,65.4449599 C1191.59668,64.3287837 1191.59668,61.9999411 1191.59668,61.9999411 C1191.59668,61.9999411 1191.59668,59.6712163 1191.30016,58.5550401 Z" id="Combined-Shape" fill="#FFFFFF"></path>
    </g>
</svg>