<?xml version="1.0" encoding="utf-8"?>
<!-- Generator: Adobe Illustrator 15.1.0, SVG Export Plug-In . SVG Version: 6.00 Build 0)  -->
<!DOCTYPE svg PUBLIC "-//W3C//DTD SVG 1.1//EN" "http://www.w3.org/Graphics/SVG/1.1/DTD/svg11.dtd">
<svg version="1.1" id="Layer_1" xmlns="http://www.w3.org/2000/svg" xmlns:xlink="http://www.w3.org/1999/xlink" x="0px" y="0px"
	 width="174.072px" height="521.592px" viewBox="0 0 174.072 521.592" enable-background="new 0 0 174.072 521.592"
	 xml:space="preserve">
<path fill="#FFFFFF" d="M40.941-0.049c-3.373,0-6.105,2.769-6.105,6.182S40.941,16.6,40.941,16.6s6.104-7.053,6.104-10.467
	S44.311-0.049,40.941-0.049z"/>
<path fill="#9B9C9E" d="M19.65,0c-0.312,0-1.084,0.133-1.529,0.452l-0.145,0.101c-0.521,0.354-1.29,0.892-1.29,2.027
	c0,1.736,1.354,4.406,4.146,8.163c3.062,4.104,6.538,5.808,7.729,5.808c1.011,0,2.17-1.413,2.562-2.17
	c0.271-0.493,0.021-0.758-0.021-0.808c-0.021,0-1.906-1.271-2.767-1.844c-0.22-0.146-0.428-0.222-0.608-0.222
	c-0.193,0-0.312,0.077-0.354,0.094c-0.003,0.007-0.184,0.203-0.548,0.511c-0.592,0.497-1.486,0.436-2.125-0.158
	c-0.575-0.538-3.471-4.14-4.296-5.251c-0.284-0.385-0.396-0.777-0.333-1.166c0.116-0.703,0.771-1.158,1.125-1.403l0.09-0.062
	c0.313-0.225,0.248-0.632,0.194-0.771c-0.104-0.262-1.229-2.686-1.364-2.967C20.008,0.098,19.917,0,19.65,0z"/>
<g>
	<path fill="#9B9C9E" d="M7.933,2.492C8.16,2.23,8.299,1.891,8.299,1.515c0-0.813-0.639-1.473-1.432-1.473
		c-0.789,0-1.432,0.659-1.432,1.473c0,0.376,0.143,0.716,0.354,0.977C2.516,3.018,0,5.935,0,9.463c0,3.901,3.075,7.065,6.867,7.065
		c3.795,0,6.868-3.164,6.868-7.065C13.737,5.935,11.221,3.018,7.933,2.492z M6.867,0.631c0.475,0,0.859,0.396,0.859,0.884
		c0,0.486-0.396,0.882-0.859,0.882c-0.476,0-0.859-0.396-0.859-0.882C6.008,1.029,6.394,0.631,6.867,0.631z"/>
	<path fill="#FFFFFF" d="M3.559,13l4.646-2.268l2.206-4.79l-4.67,2.252L3.559,13z M6.049,8.921l1.461,1.502l-2.759,1.345
		L6.049,8.921z M7.914,10.007L6.455,8.504l2.771-1.335L7.914,10.007z"/>
</g>
<polyline fill="none" stroke="#9B9C9E" stroke-width="1.5" stroke-linecap="round" stroke-linejoin="round" stroke-miterlimit="10" points="
	4.773,29.336 9.259,24.819 4.773,20.333 "/>
<polyline fill="none" stroke="#009DDE" stroke-width="1.5" stroke-linecap="round" stroke-linejoin="round" stroke-miterlimit="10" points="
	28.391,22.592 32.908,27.077 37.394,22.592 "/>
<polyline fill="none" stroke="#FFFFFF" stroke-width="1.5" stroke-linecap="round" stroke-linejoin="round" stroke-miterlimit="10" points="
	93.139,22.592 97.656,27.077 102.142,22.592 "/>
<polyline fill="none" stroke="#FFFFFF" stroke-width="2" stroke-linecap="round" stroke-linejoin="round" stroke-miterlimit="10" points="
	16.773,29.336 21.259,24.819 16.773,20.333 "/>
<g>
	<g>
		<g>
			<path id="SVGID_1_" fill="#FFFFFF" d="M63.119,28.077c0.133-0.147,0.327-0.242,0.543-0.242c0.401,0,0.729,0.324,0.729,0.726
				c0,0.217-0.104,0.409-0.244,0.543l-6.487,6.604c-0.132,0.152-0.322,0.25-0.539,0.25c-0.394,0-0.707-0.315-0.707-0.705
				c0-0.024,0.08-2.504,0.08-2.504s-3.145,3.189-3.157,3.201c-0.139,0.129-0.312,0.207-0.521,0.207c-0.42,0-0.762-0.339-0.762-0.756
				c0-0.026,0.003-0.053,0.007-0.076c0.009-0.318,0.048-1.303,0.048-1.303l-0.614,0.625c-0.141,0.166-0.349,0.272-0.582,0.272
				c-0.418,0-0.757-0.338-0.757-0.754v-0.021c0-0.269,0.118-2.736,0.118-2.736l-5.965,5.939c-0.021,0.02-0.036,0.038-0.062,0.056
				c-0.14,0.121-0.312,0.191-0.507,0.191c-0.418,0-0.757-0.336-0.757-0.752c0-0.224,0.1-0.424,0.254-0.562
				c0.271-0.284,7.432-7.418,7.432-7.418c0.129-0.146,0.312-0.234,0.521-0.234c0.383,0,0.688,0.31,0.688,0.692
				c0,0.021,0,0.04-0.002,0.06c0,0.013,0.002,0.025,0.002,0.041c0,0.188-0.068,3.054-0.068,3.054l0.771-0.763
				c0.124-0.125,0.299-0.203,0.488-0.203c0.381,0,0.688,0.311,0.688,0.688c0,0.021-0.002,0.042-0.004,0.062l-0.019,1.207
				l3.062-3.041c0.131-0.147,0.325-0.243,0.543-0.243c0.396,0,0.729,0.321,0.729,0.722l-0.074,2.323L63.119,28.077z"/>
		</g>
	</g>
</g>
<path fill="#FFFFFF" d="M25.606,106.98v3.239c-0.077,0.095-0.171,0.173-0.271,0.23c-0.104,0.061-0.181,0.096-0.249,0.096
	c-0.062,0-0.137-0.024-0.171-0.067c-0.044-0.054-0.062-0.121-0.062-0.224v-3.274H23.98v3.565c0,0.259,0.053,0.445,0.146,0.574
	c0.104,0.129,0.269,0.188,0.451,0.188c0.176,0,0.335-0.043,0.521-0.127c0.171-0.097,0.334-0.224,0.497-0.404v0.473h0.875v-4.27
	L25.606,106.98L25.606,106.98z M22.94,107.185c-0.23-0.213-0.529-0.316-0.896-0.316c-0.396,0-0.712,0.104-0.938,0.301
	c-0.23,0.195-0.354,0.453-0.354,0.787v2.213c0,0.369,0.118,0.65,0.342,0.865c0.229,0.215,0.541,0.326,0.917,0.326
	c0.396,0,0.716-0.104,0.938-0.318c0.229-0.205,0.345-0.486,0.345-0.855v-2.201C23.283,107.658,23.163,107.392,22.94,107.185z
	 M22.392,110.255c0,0.111-0.034,0.195-0.104,0.267c-0.062,0.067-0.162,0.102-0.282,0.102c-0.104,0-0.205-0.033-0.266-0.102
	c-0.061-0.062-0.096-0.154-0.096-0.267v-2.332c0-0.094,0.035-0.172,0.104-0.223c0.062-0.062,0.152-0.086,0.257-0.086
	c0.111,0,0.206,0.024,0.282,0.086c0.067,0.051,0.104,0.129,0.104,0.223L22.392,110.255L22.392,110.255z M19.683,105.462
	l-0.606,2.313h-0.069l-0.634-2.313H17.38l1.188,3.498v2.289h0.979v-2.399l1.146-3.388H19.683z M26.498,115.656
	c0.051,0.068,0.076,0.188,0.076,0.342v0.396h-0.679v-0.396c0-0.154,0.019-0.271,0.077-0.342c0.052-0.068,0.138-0.111,0.269-0.111
	C26.361,115.544,26.446,115.587,26.498,115.656z M23.806,115.638c-0.062-0.068-0.146-0.104-0.24-0.104
	c-0.051,0-0.109,0.01-0.163,0.034c-0.052,0.023-0.109,0.067-0.161,0.119v2.418c0.06,0.062,0.128,0.109,0.188,0.138
	c0.06,0.025,0.106,0.043,0.18,0.043c0.104,0,0.171-0.025,0.213-0.086c0.044-0.052,0.069-0.138,0.069-0.267v-2.007
	C23.892,115.8,23.866,115.707,23.806,115.638z M23.806,115.638c-0.062-0.068-0.146-0.104-0.24-0.104
	c-0.051,0-0.109,0.01-0.163,0.034c-0.052,0.023-0.109,0.067-0.161,0.119v2.418c0.06,0.062,0.128,0.109,0.188,0.138
	c0.06,0.025,0.106,0.043,0.18,0.043c0.104,0,0.171-0.025,0.213-0.086c0.044-0.052,0.069-0.138,0.069-0.267v-2.007
	C23.892,115.8,23.866,115.707,23.806,115.638z M28.204,112.646H16.049c-1.316,0-2.426,1.098-2.426,2.436v2.479
	c0,1.338,1.104,2.426,2.426,2.426h12.155c1.329,0,2.427-1.088,2.427-2.426v-2.479C30.631,113.744,29.533,112.646,28.204,112.646z
	 M19.323,114.351h-0.909v4.491H17.54v-4.491H16.64v-0.763h2.686L19.323,114.351L19.323,114.351z M21.877,118.843H21.1v-0.428
	c-0.146,0.162-0.292,0.283-0.445,0.358c-0.152,0.086-0.301,0.129-0.445,0.129c-0.181,0-0.312-0.062-0.411-0.18
	c-0.086-0.111-0.128-0.283-0.128-0.516v-3.25h0.771v2.984c0,0.084,0.019,0.153,0.053,0.194c0.025,0.046,0.086,0.062,0.154,0.062
	c0.061,0,0.128-0.025,0.214-0.086c0.096-0.051,0.172-0.119,0.239-0.205v-2.949h0.771L21.877,118.843L21.877,118.843z
	 M24.689,118.039c0,0.273-0.062,0.488-0.188,0.635c-0.105,0.146-0.3,0.225-0.521,0.225c-0.156,0-0.284-0.026-0.402-0.086
	c-0.12-0.062-0.229-0.146-0.333-0.268v0.299h-0.78v-5.254h0.78v1.688c0.104-0.108,0.214-0.204,0.333-0.266
	c0.118-0.061,0.238-0.096,0.358-0.096c0.229,0,0.429,0.086,0.56,0.25c0.129,0.162,0.195,0.402,0.195,0.721L24.689,118.039
	L24.689,118.039z M27.381,117.001H25.9v0.729c0,0.205,0.019,0.344,0.062,0.42c0.062,0.086,0.146,0.119,0.271,0.119
	c0.129,0,0.214-0.033,0.268-0.103c0.062-0.062,0.076-0.215,0.076-0.438v-0.182h0.807v0.195c0,0.404-0.104,0.703-0.301,0.9
	c-0.188,0.207-0.479,0.301-0.854,0.301c-0.354,0-0.625-0.104-0.821-0.316c-0.195-0.215-0.3-0.506-0.3-0.885v-1.738
	c0-0.336,0.104-0.607,0.335-0.822c0.214-0.205,0.495-0.315,0.85-0.315c0.355,0,0.626,0.104,0.812,0.301
	c0.188,0.197,0.292,0.472,0.292,0.84L27.381,117.001L27.381,117.001z M23.566,115.535c-0.051,0-0.109,0.01-0.163,0.035
	c-0.052,0.025-0.109,0.068-0.161,0.119v2.418c0.06,0.061,0.128,0.11,0.188,0.137c0.06,0.026,0.106,0.043,0.18,0.043
	c0.104,0,0.171-0.023,0.213-0.086c0.044-0.051,0.069-0.137,0.069-0.266v-2.006c0-0.13-0.025-0.224-0.086-0.291
	C23.755,115.57,23.669,115.535,23.566,115.535z M23.806,115.638c-0.062-0.068-0.146-0.104-0.24-0.104
	c-0.051,0-0.109,0.01-0.163,0.034c-0.052,0.023-0.109,0.067-0.161,0.119v2.418c0.06,0.062,0.128,0.109,0.188,0.138
	c0.06,0.025,0.106,0.043,0.18,0.043c0.104,0,0.171-0.025,0.213-0.086c0.044-0.052,0.069-0.138,0.069-0.267v-2.007
	C23.892,115.8,23.866,115.707,23.806,115.638z M23.806,115.638c-0.062-0.068-0.146-0.104-0.24-0.104
	c-0.051,0-0.109,0.01-0.163,0.034c-0.052,0.023-0.109,0.067-0.161,0.119v2.418c0.06,0.062,0.128,0.109,0.188,0.138
	c0.06,0.025,0.106,0.043,0.18,0.043c0.104,0,0.171-0.025,0.213-0.086c0.044-0.052,0.069-0.138,0.069-0.267v-2.007
	C23.892,115.8,23.866,115.707,23.806,115.638z"/>
<path fill="#FFFFFF" d="M18.721,164.865h-3.315v-10.609h3.315V164.865z M16.979,152.927h-0.022c-1.2,0-1.979-0.812-1.979-1.84
	c0-1.047,0.801-1.842,2.021-1.842c1.229,0,1.979,0.793,1.998,1.84C19,152.115,18.225,152.927,16.979,152.927z M31.984,164.865h-3.76
	v-5.49c0-1.438-0.587-2.418-1.895-2.418c-0.979,0-1.524,0.662-1.795,1.301c-0.097,0.229-0.08,0.548-0.08,0.867v5.74h-3.72
	c0,0,0.049-9.726,0-10.609h3.725v1.664c0.229-0.728,1.409-1.767,3.312-1.767c2.354,0,4.207,1.523,4.207,4.812L31.984,164.865
	L31.984,164.865z"/>
<path fill="#FFFFFF" d="M30.519,65.133c-0.074,1.653-1.23,3.914-3.466,6.783c-2.312,3-4.271,4.499-5.872,4.499
	c-0.99,0-1.829-0.912-2.521-2.742c-0.459-1.679-0.915-3.356-1.373-5.031c-0.511-1.83-1.058-2.745-1.642-2.745
	c-0.127,0-0.568,0.267-1.334,0.802l-0.8-1.031c0.838-0.733,1.655-1.473,2.479-2.209c1.114-0.967,1.954-1.473,2.521-1.524
	c1.312-0.129,2.134,0.773,2.438,2.705c0.325,2.085,0.562,3.381,0.688,3.89c0.382,1.728,0.8,2.59,1.258,2.59
	c0.354,0,0.891-0.558,1.603-1.675c0.712-1.119,1.092-1.97,1.146-2.556c0.104-0.967-0.278-1.446-1.146-1.446
	c-0.406,0-0.826,0.086-1.258,0.267c0.84-2.72,2.438-4.041,4.804-3.964C29.795,61.792,30.621,62.924,30.519,65.133z"/>
<circle fill="none" stroke="#FFFFFF" stroke-miterlimit="10" cx="22.126" cy="68.332" r="21.417"/>
<path fill="#464648" d="M74.53,65.133c-0.072,1.653-1.23,3.914-3.466,6.783c-2.312,3-4.271,4.499-5.872,4.499
	c-0.988,0-1.829-0.912-2.521-2.742c-0.459-1.679-0.901-3.356-1.359-5.031c-0.521-1.83-1.062-2.745-1.646-2.745
	c-0.127,0-0.563,0.267-1.334,0.802l-0.802-1.031c0.839-0.733,1.664-1.473,2.479-2.209c1.116-0.967,1.955-1.473,2.521-1.524
	c1.312-0.129,2.136,0.773,2.438,2.705c0.327,2.085,0.562,3.381,0.688,3.89c0.384,1.728,0.802,2.59,1.26,2.59
	c0.354,0,0.892-0.558,1.604-1.675c0.72-1.119,1.1-1.97,1.146-2.556c0.104-0.967-0.274-1.446-1.146-1.446
	c-0.398,0-0.818,0.086-1.264,0.267c0.844-2.72,2.438-4.041,4.812-3.964C73.807,61.792,74.633,62.924,74.53,65.133z"/>
<circle fill="none" stroke="#464648" stroke-miterlimit="10" cx="66.138" cy="68.332" r="21.417"/>
<circle fill="none" stroke="#FFFFFF" stroke-miterlimit="10" cx="22.126" cy="112.811" r="21.417"/>
<circle fill="none" stroke="#FFFFFF" stroke-miterlimit="10" cx="22.126" cy="157.054" r="21.417"/>
<path fill="#464648" d="M62.732,164.865h-3.313v-10.609h3.313V164.865z M60.99,152.927h-0.024c-1.188,0-1.979-0.812-1.979-1.84
	c0-1.047,0.803-1.842,2.025-1.842c1.222,0,1.975,0.793,1.984,1.84C63.012,152.115,62.236,152.927,60.99,152.927z M75.996,164.865
	h-3.762v-5.49c0-1.438-0.587-2.418-1.881-2.418c-0.986,0-1.538,0.662-1.795,1.301c-0.104,0.229-0.08,0.548-0.08,0.867v5.74H64.75
	c0,0,0.062-9.726,0-10.609h3.729v1.664c0.222-0.728,1.409-1.767,3.311-1.767c2.354,0,4.207,1.523,4.207,4.812L75.996,164.865
	L75.996,164.865z"/>
<circle fill="none" stroke="#464648" stroke-miterlimit="10" cx="66.138" cy="157.054" r="21.417"/>
<path fill="#464648" d="M69.515,106.98v3.239c-0.077,0.095-0.171,0.173-0.271,0.23c-0.104,0.061-0.182,0.096-0.249,0.096
	c-0.076,0-0.139-0.024-0.171-0.067c-0.045-0.054-0.062-0.121-0.062-0.224v-3.274H67.89v3.565c0,0.259,0.051,0.445,0.146,0.574
	c0.104,0.129,0.27,0.188,0.454,0.188c0.172,0,0.335-0.043,0.521-0.127c0.171-0.097,0.334-0.224,0.487-0.404v0.473h0.875v-4.27
	L69.515,106.98L69.515,106.98z M66.848,107.185c-0.229-0.213-0.531-0.316-0.896-0.316c-0.396,0-0.711,0.104-0.951,0.301
	c-0.229,0.195-0.354,0.453-0.354,0.787v2.213c0,0.369,0.119,0.65,0.344,0.865c0.23,0.215,0.541,0.326,0.918,0.326
	c0.396,0,0.712-0.104,0.938-0.318c0.229-0.205,0.344-0.486,0.344-0.855v-2.201C67.191,107.658,67.071,107.392,66.848,107.185z
	 M66.3,110.255c0,0.111-0.021,0.195-0.104,0.267c-0.065,0.067-0.16,0.102-0.28,0.102c-0.104,0-0.205-0.033-0.268-0.102
	c-0.062-0.062-0.095-0.154-0.095-0.267v-2.332c0-0.094,0.021-0.172,0.103-0.223c0.062-0.062,0.154-0.086,0.26-0.086
	c0.109,0,0.206,0.024,0.28,0.086c0.069,0.051,0.104,0.129,0.104,0.223V110.255z M63.591,105.462l-0.604,2.313H62.92l-0.636-2.313
	H61.29l1.175,3.498v2.289h0.984v-2.399l1.142-3.388H63.591z M70.406,115.656c0.053,0.068,0.076,0.188,0.076,0.342v0.396h-0.677
	v-0.396c0-0.154,0.017-0.271,0.063-0.342c0.062-0.068,0.146-0.111,0.271-0.111C70.27,115.544,70.354,115.587,70.406,115.656z
	 M67.715,115.638c-0.052-0.068-0.138-0.104-0.229-0.104c-0.062,0-0.11,0.01-0.163,0.034c-0.062,0.023-0.109,0.067-0.163,0.119v2.418
	c0.062,0.062,0.13,0.109,0.188,0.138c0.062,0.024,0.112,0.043,0.187,0.043c0.104,0,0.172-0.025,0.214-0.086
	c0.043-0.052,0.066-0.138,0.066-0.267v-2.007C67.801,115.8,67.773,115.707,67.715,115.638z M67.715,115.638
	c-0.052-0.068-0.138-0.104-0.229-0.104c-0.062,0-0.11,0.01-0.163,0.034c-0.062,0.023-0.109,0.067-0.163,0.119v2.418
	c0.062,0.062,0.13,0.109,0.188,0.138c0.062,0.024,0.112,0.043,0.187,0.043c0.104,0,0.172-0.025,0.214-0.086
	c0.043-0.052,0.066-0.138,0.066-0.267v-2.007C67.801,115.8,67.773,115.707,67.715,115.638z M72.112,112.646H59.957
	c-1.33,0-2.428,1.098-2.428,2.436v2.479c0,1.338,1.098,2.426,2.428,2.426H72.11c1.329,0,2.429-1.088,2.429-2.426v-2.479
	C74.539,113.744,73.441,112.646,72.112,112.646z M63.231,114.351h-0.909v4.491h-0.875v-4.491H60.55v-0.763h2.688L63.231,114.351
	L63.231,114.351z M65.785,118.843h-0.779v-0.428c-0.138,0.162-0.292,0.283-0.438,0.358c-0.152,0.086-0.312,0.129-0.446,0.129
	c-0.181,0-0.312-0.062-0.41-0.18c-0.086-0.111-0.128-0.283-0.128-0.516v-3.25h0.771v2.984c0,0.084,0.018,0.153,0.051,0.194
	c0.021,0.046,0.087,0.062,0.155,0.062c0.061,0,0.128-0.025,0.214-0.086c0.095-0.051,0.172-0.119,0.229-0.205v-2.949h0.779
	L65.785,118.843L65.785,118.843z M68.598,118.039c0,0.273-0.062,0.488-0.188,0.635c-0.119,0.146-0.301,0.225-0.521,0.225
	c-0.156,0-0.284-0.026-0.404-0.086c-0.119-0.062-0.229-0.146-0.334-0.268v0.299h-0.78v-5.254h0.777v1.688
	c0.104-0.108,0.215-0.204,0.334-0.266c0.12-0.061,0.24-0.096,0.354-0.096c0.24,0,0.438,0.086,0.562,0.25
	c0.129,0.162,0.191,0.402,0.191,0.721L68.598,118.039L68.598,118.039z M71.289,117.001H69.81v0.729c0,0.205,0.018,0.344,0.062,0.42
	c0.051,0.086,0.146,0.119,0.271,0.119c0.129,0,0.214-0.033,0.268-0.103c0.051-0.062,0.074-0.215,0.074-0.438v-0.182h0.809v0.195
	c0,0.404-0.104,0.703-0.302,0.9c-0.188,0.207-0.479,0.301-0.864,0.301c-0.354,0-0.625-0.104-0.812-0.316
	c-0.195-0.215-0.312-0.506-0.312-0.885v-1.738c0-0.336,0.109-0.607,0.335-0.822c0.226-0.205,0.497-0.315,0.854-0.315
	c0.354,0,0.626,0.104,0.812,0.301c0.188,0.197,0.292,0.472,0.292,0.84L71.289,117.001L71.289,117.001z M67.475,115.535
	c-0.062,0-0.111,0.01-0.163,0.035c-0.062,0.025-0.109,0.068-0.163,0.119v2.418c0.062,0.061,0.129,0.11,0.188,0.137
	c0.062,0.025,0.119,0.043,0.188,0.043c0.104,0,0.171-0.023,0.213-0.086c0.043-0.051,0.062-0.137,0.062-0.266v-2.006
	c0-0.13-0.021-0.224-0.086-0.291C67.663,115.57,67.577,115.535,67.475,115.535z M67.715,115.638
	c-0.052-0.068-0.138-0.104-0.229-0.104c-0.062,0-0.11,0.01-0.163,0.034c-0.062,0.023-0.109,0.067-0.163,0.119v2.418
	c0.062,0.062,0.13,0.109,0.188,0.138c0.062,0.024,0.112,0.043,0.187,0.043c0.104,0,0.172-0.025,0.214-0.086
	c0.043-0.052,0.066-0.138,0.066-0.267v-2.007C67.801,115.8,67.773,115.707,67.715,115.638z M67.715,115.638
	c-0.052-0.068-0.138-0.104-0.229-0.104c-0.062,0-0.11,0.01-0.163,0.034c-0.062,0.023-0.109,0.067-0.163,0.119v2.418
	c0.062,0.062,0.13,0.109,0.188,0.138c0.062,0.024,0.112,0.043,0.187,0.043c0.104,0,0.172-0.025,0.214-0.086
	c0.043-0.052,0.066-0.138,0.066-0.267v-2.007C67.801,115.8,67.773,115.707,67.715,115.638z"/>
<circle fill="none" stroke="#464648" stroke-miterlimit="10" cx="66.035" cy="112.811" r="21.417"/>
<ellipse fill="#9B9C9E" cx="40.94" cy="5.629" rx="2.047" ry="2.101"/>
<polyline fill="none" stroke="#FFFFFF" stroke-width="1.25" stroke-linecap="round" stroke-linejoin="round" stroke-miterlimit="10" points="
	60.035,9.323 63.006,6.331 60.035,3.36 "/>
<polyline fill="none" stroke="#9B9C9E" stroke-width="1.25" stroke-linecap="round" stroke-linejoin="round" stroke-miterlimit="10" points="
	73.053,9.323 76.024,6.331 73.053,3.36 "/>
<polyline fill="none" stroke="#009DDE" stroke-width="1.25" stroke-linecap="round" stroke-linejoin="round" stroke-miterlimit="10" points="
	85.551,9.323 88.522,6.331 85.551,3.36 "/>
<path fill="#CACACA" d="M4.211,220.148c-0.438,0-1.541,0.188-2.174,0.645l-0.204,0.145C1.104,221.441,0,222.205,0,223.826
	c0,2.475,1.938,6.279,5.898,11.637c4.332,5.852,9.287,8.277,10.977,8.277c1.438,0,3.082-2.016,3.646-3.094
	c0.368-0.707,0.021-1.083-0.051-1.15c-0.021-0.002-2.707-1.812-3.91-2.629c-0.312-0.209-0.605-0.316-0.881-0.316
	c-0.277,0-0.448,0.109-0.483,0.135c-0.004,0.01-0.261,0.289-0.778,0.729c-0.839,0.707-2.108,0.621-3.02-0.226
	c-0.816-0.771-4.927-5.901-6.104-7.485c-0.396-0.552-0.562-1.106-0.475-1.662c0.166-1.002,1.1-1.649,1.599-2l0.126-0.088
	c0.448-0.32,0.354-0.902,0.276-1.101c-0.14-0.373-1.74-3.828-1.94-4.229C4.718,220.287,4.588,220.148,4.211,220.148z"/>
<path fill="#FFFFFF" d="M127.736,220.148c-0.438,0-1.541,0.188-2.174,0.645l-0.204,0.145c-0.729,0.503-1.833,1.267-1.833,2.888
	c0,2.475,1.938,6.279,5.897,11.637c4.332,5.852,9.287,8.277,10.978,8.277c1.438,0,3.082-2.016,3.646-3.094
	c0.368-0.707,0.021-1.083-0.051-1.15c-0.021-0.002-2.707-1.812-3.91-2.629c-0.312-0.209-0.604-0.316-0.881-0.316
	s-0.448,0.109-0.482,0.135c-0.005,0.01-0.262,0.289-0.778,0.729c-0.839,0.707-2.109,0.621-3.021-0.226
	c-0.815-0.771-4.927-5.901-6.104-7.485c-0.396-0.552-0.562-1.106-0.476-1.662c0.166-1.002,1.101-1.649,1.6-2l0.126-0.088
	c0.448-0.32,0.354-0.902,0.276-1.101c-0.141-0.373-1.74-3.828-1.94-4.229C128.243,220.287,128.113,220.148,127.736,220.148z"/>
<g>
	<path fill="#CACACA" d="M61.857,219.854c-4.897,0-8.869,4.021-8.869,8.979s8.869,15.203,8.869,15.203s8.867-10.244,8.867-15.203
		S66.753,219.854,61.857,219.854z M61.856,224.951c1.699,0,3.078,1.416,3.078,3.16c0,1.744-1.379,3.16-3.078,3.16
		c-1.701,0-3.078-1.416-3.078-3.16C58.778,226.367,60.155,224.951,61.856,224.951z"/>
</g>
<path fill="#FFFFFF" d="M110.175,267.087c-0.627,0.279-1.301,0.469-2.008,0.553c0.729-0.434,1.276-1.117,1.537-1.936
	c-0.677,0.398-1.424,0.689-2.222,0.848c-0.636-0.68-1.545-1.104-2.551-1.104c-1.938,0-3.494,1.562-3.494,3.494
	c0,0.271,0.021,0.539,0.09,0.797c-2.903-0.146-5.479-1.535-7.205-3.652c-0.301,0.52-0.473,1.119-0.473,1.762
	c0,1.211,0.604,2.279,1.555,2.906c-0.571-0.02-1.11-0.176-1.584-0.438v0.043c0,1.688,1.205,3.104,2.806,3.43
	c-0.293,0.082-0.603,0.123-0.921,0.123c-0.227,0-0.438-0.021-0.657-0.062c0.444,1.387,1.734,2.396,3.271,2.426
	c-1.195,0.938-2.703,1.496-4.341,1.496c-0.282,0-0.562-0.021-0.834-0.047c1.547,0.983,3.385,1.563,5.354,1.563
	c6.438,0,9.944-5.326,9.944-9.946c0-0.146-0.003-0.304-0.01-0.447C109.114,268.403,109.708,267.789,110.175,267.087"/>
<path fill="#FFFFFF" d="M54.718,281.615c-2.021,0-3.479-1.279-3.479-2.816c0-1.508,1.812-2.762,3.833-2.737
	c0.473,0.004,0.911,0.08,1.312,0.209c1.104,0.771,1.896,1.192,2.105,2.063c0.042,0.176,0.062,0.354,0.062,0.543
	C58.55,280.414,57.559,281.615,54.718,281.615 M55.249,272.599c-1.354-0.039-2.646-1.52-2.881-3.301
	c-0.234-1.781,0.676-3.146,2.031-3.104c1.354,0.041,2.646,1.477,2.881,3.258C57.514,271.228,56.605,272.64,55.249,272.599
	 M58.061,275.238c-0.479-0.339-1.396-1.156-1.396-1.64c0-0.563,0.16-0.854,1.021-1.52c0.871-0.686,1.479-1.641,1.479-2.75
	c0-1.312-0.59-2.604-1.688-3.043h1.67l1.179-0.854h-5.269c-2.36,0-4.583,1.785-4.583,3.855c0,2.117,1.604,3.826,4.013,3.826
	c0.167,0,0.328-0.006,0.488-0.018c-0.156,0.297-0.271,0.637-0.271,0.979c0,0.593,0.316,1.062,0.718,1.456
	c-0.303,0-0.596,0.012-0.9,0.012c-2.938,0-5.188,1.857-5.188,3.796c0,1.896,2.479,3.099,5.396,3.099
	c3.334,0,5.177-1.896,5.177-3.795C59.904,277.134,59.454,276.222,58.061,275.238 M65.725,272.755H63.67v-2.051h-1.646v2.051h-2.05
	v1.65h2.05v2.051h1.646v-2.051h2.062L65.725,272.755L65.725,272.755z"/>
<path fill="#FFFFFF" d="M2.136,271.074h1.758v-1.709c0-0.757,0.021-1.916,0.562-2.638c0.577-0.771,1.369-1.278,2.729-1.278
	c2.218,0,3.146,0.312,3.146,0.312L9.9,268.367c0,0-0.732-0.214-1.417-0.214c-0.688,0-1.296,0.244-1.296,0.931v1.983h2.805
	l-0.196,2.548H7.191v8.838H3.894v-8.838H2.136V271.074z"/>
<path id="magnifier-2-icon" fill="#FFFFFF" d="M14.776,323.282l-3.854-3.852c0.729-0.996,1.152-2.229,1.152-3.556
	c0-3.319-2.709-6.028-6.039-6.028S0,312.558,0,315.888c0,3.329,2.709,6.038,6.039,6.038c1.262,0,2.438-0.389,3.404-1.054
	l3.871,3.871L14.776,323.282z M1.771,315.888c0-2.354,1.914-4.269,4.269-4.269c2.355,0,4.271,1.914,4.271,4.269
	c0,2.355-1.915,4.271-4.271,4.271C3.685,320.156,1.771,318.24,1.771,315.888z"/>
<path id="magnifier-2-icon_1_" fill="#FFFFFF" d="M55.683,332.375l-6.457-6.457c1.215-1.67,1.933-3.726,1.933-5.942
	c0-5.584-4.542-10.127-10.126-10.127c-5.585,0-10.127,4.543-10.127,10.127s4.542,10.127,10.127,10.127
	c2.115,0,4.084-0.646,5.71-1.769l6.49,6.491L55.683,332.375z M33.877,319.976c0-3.947,3.209-7.156,7.156-7.156
	c3.946,0,7.157,3.209,7.157,7.156c0,3.945-3.211,7.156-7.157,7.156C37.086,327.132,33.877,323.921,33.877,319.976z"/>
<g>
	<path fill="#FFFFFF" d="M7.375,346.019c-3.812,0-6.914,3.135-6.914,7c0,3.864,6.914,11.854,6.914,11.854s6.917-7.988,6.917-11.854
		C14.292,349.151,11.195,346.019,7.375,346.019z"/>
</g>
<circle fill="#F09200" cx="7.374" cy="352.523" r="3.395"/>
<polyline fill="none" stroke="#FFFFFF" stroke-width="1.3" stroke-linecap="round" stroke-linejoin="round" stroke-miterlimit="10" points="
	5.813,389.448 9.193,386.042 5.813,382.663 "/>
<g>
	<rect x="31.765" y="407.861" fill="#FFFFFF" width="37.9" height="0.48"/>
	<rect x="31.801" y="431.772" fill="#FFFFFF" width="37.908" height="0.484"/>
	<g>
		<g>
			<g>
				<g>
					<g>
						<g>
							<g>
								<g>
									<g>
										<defs>
											<rect id="SVGID_2_" x="0.709" y="407.861" width="69" height="24.502"/>
										</defs>
										<clipPath id="SVGID_3_">
											<use xlink:href="#SVGID_2_"  overflow="visible"/>
										</clipPath>
										<path clip-path="url(#SVGID_3_)" fill="#FFFFFF" d="M3.32,407.881c-1.44,0-2.61,1.171-2.61,2.611v19.259
											c0,1.439,1.17,2.612,2.61,2.612h19.259c1.44,0,2.613-1.173,2.613-2.612v-19.259c0-1.44-1.173-2.611-2.613-2.611H3.32z
											 M1.192,429.751v-19.259c0-1.173,0.954-2.126,2.128-2.126h19.259c1.174,0,2.128,0.953,2.128,2.126v19.259
											c0,1.175-0.954,2.127-2.128,2.127H3.32C2.146,431.878,1.192,430.926,1.192,429.751 M15.49,423.178
											c-1.025,0.065-1.693-0.562-1.693-0.562l0.412-0.267c0,0,0.443,0.353,0.922,0.367c0.479,0.026,0.687-0.071,0.687-0.071
											l-1.298-0.504l0.384-0.277l2.035,0.802C16.931,422.657,16.512,423.113,15.49,423.178 M15.278,423.501l0.025-0.079
											c0,0,0.271,0.053,0.556,0.011c0.281-0.041,0.373-0.079,0.373-0.079l0.604,0.604l5.308,2.473c0,0-0.021,0.111-0.187,0.271
											c-0.151,0.146-0.331,0.189-0.331,0.189L15.278,423.501z M10.562,429.725l-0.453,0.407l-0.58-0.018L8.8,430.476
											l-0.266-0.172L9.41,429.6L10.562,429.725z M12.597,427.777l-0.628,1.767l-0.562-0.071l0.627-1.623l-0.854-2.222
											c0,0,0.166,0.104,0.351,0.192c0.188,0.09,0.318,0.14,0.318,0.14L12.597,427.777z M6.857,424.348
											c0,0,0.093-0.06,0.167-0.217c0.062-0.13,0.138-0.265-0.032-0.326c-0.181-0.062-0.247,0.146-0.307,0.271
											c-0.062,0.128-0.114,0.312-0.114,0.312l0.056,0.095l-0.099,0.066c0,0-0.085-0.021-0.154-0.062
											c-0.202-0.118-0.339-0.32-0.366-0.543C6.003,423.918,6,423.889,6,423.858c0-0.192,0.104-0.485,0.404-0.793
											c-0.134-0.159-0.065-0.48-0.021-0.595c0.23-0.562,1.105-1.144,2.604-1.725l0.147-0.055c0,0-0.088,0.283-0.104,0.354
											c1.334-0.367,2.32-0.017,2.32-0.017s-0.082,0.075-0.138,0.177c-0.049,0.104-0.063,0.213-0.063,0.213
											s-0.54-0.099-1.072-0.099c-0.787,0-1.396,0.303-1.396,0.303s0.065-0.312,0.085-0.362
											c-1.229,0.267-2.455,1.418-1.945,1.662c0.159,0.078,0.3-0.118,0.521-0.358c0.562-0.622,0.945-0.596,1.141-0.532
											l-0.125,0.38c-0.118-0.036-0.398-0.047-0.891,0.412c-0.067,0.063-0.052,0.174,0.04,0.174c0.103,0,0.126-0.167,0.126-0.167
											h0.28c0,0,0.035,0.478-0.403,0.478c-0.229,0-0.305-0.134-0.314-0.147c-0.147,0.088-0.294,0.13-0.418,0.104
											c0,0-0.02-0.006-0.021-0.009c-0.225,0.152-0.354,0.382-0.354,0.536v0.019c0.003,0.034,0.016,0.062,0.021,0.072
											c0.148-0.22,0.354-0.46,0.71-0.365c0.127,0.034,0.221,0.104,0.269,0.192c0.021,0.05,0.039,0.109,0.039,0.177
											c0,0.062-0.019,0.116-0.047,0.19c0.11-0.042,0.22-0.104,0.316-0.167c0.125-0.089,0.257-0.177,0.443-0.237
											c0.396-0.126,0.809-0.148,1.289-0.146c0.007-0.067,0.05-0.375,0.05-0.375c0.127,0.222,0.34,0.604,0.688,0.938
											c0.457,0.438,1.151,0.839,1.701,1.107c-0.29-0.417-0.651-0.634-0.852-0.675l0.209-0.316
											c0.271,0.013,0.956,0.202,1.363,1.173c0.015,0.035,1.043,2.288,1.043,2.288l-0.776,2.09l1.415-0.021l0.658,0.604
											l-0.24,0.15l-0.528-0.229l-1.688,0.108l-1.354-0.2l-0.713,0.311l-0.263-0.154l0.864-0.753l1.188,0.151l0.812-1.968
											l-0.806-1.771c-0.496-0.196-2.019-0.87-2.81-1.942c-0.079-0.003-0.575-0.026-0.595-0.026
											c-0.391-0.008-0.729,0.085-0.89,0.188c-0.444,0.285-0.722,0.259-0.956,0.188L6.857,424.348 M17.885,425.274l3.309,1.804
											c0,0-0.122,0.188-0.252,0.271c-0.145,0.087-0.314,0.146-0.314,0.146l-3.026-2.088L17.885,425.274z M16.891,425.518
											l0.351-0.042l2.749,2.112c0,0-0.075,0.108-0.232,0.202c-0.151,0.095-0.395,0.113-0.395,0.113L16.891,425.518z
											 M16.108,425.428l0.408,0.078l2.105,2.312c0,0-0.105,0.109-0.307,0.175c-0.166,0.05-0.36,0.036-0.36,0.036L16.108,425.428
											z M17.239,427.666c0,0-0.104,0.092-0.308,0.142c-0.19,0.044-0.387-0.014-0.387-0.014l-1.066-2.028l-1.393-0.481
											l-0.126-0.37l1.74,0.491L17.239,427.666z M15.252,427.398c0,0,0.002,0.192-0.059,0.321
											c-0.084,0.188-0.192,0.229-0.192,0.229l-1.022-1.303l0.066-0.366L15.252,427.398z M15.451,426.508
											c0,0,0.063,0.153,0.011,0.384c-0.038,0.162-0.13,0.229-0.13,0.229l-1.251-1.162l-0.007-0.402L15.451,426.508z
											 M14.811,428.228c0,0-0.036,0.165-0.124,0.281c-0.126,0.158-0.242,0.157-0.242,0.157l-0.694-1.416l0.146-0.348
											L14.811,428.228z M8.294,415.324l-0.5-0.255l-1.1-4.439c0,0,0.339-0.033,0.634,0.136c0.298,0.171,0.382,0.316,0.465,0.479
											L8.294,415.324z M9.391,416.077l-0.475-0.354l-0.378-4.165c0,0,0.348,0.021,0.604,0.233
											c0.27,0.214,0.328,0.37,0.389,0.537L9.391,416.077z M10.202,416.823l-0.367-0.359l0.354-3.618
											c0,0,0.335,0.074,0.559,0.335c0.171,0.2,0.211,0.372,0.235,0.55L10.202,416.823z M10.922,417.679l-0.312-0.396
											l0.872-2.988c0,0,0.203,0.062,0.396,0.312c0.146,0.19,0.154,0.322,0.147,0.508L10.922,417.679z M11.498,418.619
											l-0.229-0.43l1.087-2.484c0,0,0.171,0.042,0.334,0.312c0.104,0.21,0.119,0.313,0.089,0.488L11.498,418.619z
											 M11.955,419.652l-0.182-0.438l1.209-2.028c0,0,0.199,0.091,0.269,0.311c0.044,0.139,0.06,0.271,0,0.449L11.955,419.652z
											 M7.165,414.796l-0.576-0.188l-2.029-4.562c0,0,0.32-0.093,0.646,0.021c0.321,0.105,0.428,0.232,0.542,0.381
											L7.165,414.796z M18.284,416.3l0.093-0.553l3.897-2.391c0,0,0.135,0.312,0.062,0.646c-0.064,0.332-0.185,0.456-0.31,0.584
											L18.284,416.3z M17.9,417.7l0.188-0.551l3.854-1.62c0,0,0.082,0.33-0.039,0.646c-0.123,0.317-0.255,0.422-0.397,0.528
											L17.9,417.7z M17.518,418.812l0.229-0.467l3.562-0.76c0,0,0.023,0.342-0.15,0.631c-0.142,0.229-0.293,0.313-0.45,0.396
											L17.518,418.812z M16.871,419.915l0.29-0.427l3.11-0.071c0,0-0.001,0.215-0.177,0.475
											c-0.146,0.19-0.269,0.247-0.438,0.296L16.871,419.915z M16.15,420.748l0.339-0.354l2.695,0.286
											c0,0,0.013,0.183-0.197,0.412c-0.165,0.168-0.262,0.206-0.438,0.234L16.15,420.748z M15.302,421.497l0.359-0.305
											l2.301,0.541c0,0-0.021,0.212-0.207,0.345c-0.111,0.085-0.25,0.133-0.429,0.136L15.302,421.497z M18.425,415.022
											l0.017-0.606l3.729-3.319c0,0,0.188,0.284,0.181,0.625c-0.015,0.348-0.104,0.481-0.196,0.632L18.425,415.022z
											 M12.878,422.616l-0.357,0.262c0,0-0.354-0.307-0.828-0.462c-0.479-0.156-0.98-0.062-0.98-0.062l-0.093-0.416
											c0,0,0.428-0.062,0.762-0.013c-0.062-0.415,0.117-0.756,0.326-0.963c0,0,1.591-1.478,2.094-2.483
											c0.854-1.707,0.866-2.675,0.866-2.675l6.97-6.013c0,0,0.133,0.011,0.188,0.211c0.044,0.151,0.012,0.329,0.012,0.329
											s-6.557,5.758-6.596,5.792c-0.387,2.55-1.569,3.74-2.938,5.115l-0.144,0.146c-0.291,0.325-0.067,0.635,0.085,0.757
											C12.43,422.298,12.878,422.616,12.878,422.616 M10.655,420.618c0,0-0.135-0.035-0.41-0.035
											c-0.271,0-0.446,0.034-0.446,0.034s-0.65-0.837-1.461-1.54c-0.8-0.703-1.643-1.205-1.643-1.205l-3.566-7.927
											c0,0,0.166-0.048,0.349-0.039c0.179,0.008,0.264,0.039,0.264,0.039l3.521,7.476c0,0,0.688,0.438,1.466,1.078
											C9.818,419.413,10.655,420.618,10.655,420.618"/>
									</g>
								</g>
							</g>
						</g>
					</g>
				</g>
			</g>
		</g>
		<g>
			<g>
				<g>
					<g>
						<g>
							<g>
								<g>
									<g>
										<defs>
											<rect id="SVGID_4_" x="0.709" y="407.861" width="69" height="24.502"/>
										</defs>
										<clipPath id="SVGID_5_">
											<use xlink:href="#SVGID_4_"  overflow="visible"/>
										</clipPath>
										<polygon clip-path="url(#SVGID_5_)" fill="#FFFFFF" points="33.422,412.754 40.364,412.754 40.016,414.827 
											35.816,414.827 35.816,418.779 38.784,418.779 38.784,420.843 35.816,420.851 35.816,426.523 33.422,426.523 										
											"/>
									</g>
								</g>
							</g>
						</g>
					</g>
				</g>
			</g>
		</g>
		<g>
			<g>
				<g>
					<g>
						<g>
							<g>
								<g>
									<g>
										<defs>
											<rect id="SVGID_6_" x="0.709" y="407.861" width="69" height="24.502"/>
										</defs>
										<clipPath id="SVGID_7_">
											<use xlink:href="#SVGID_6_"  overflow="visible"/>
										</clipPath>
										<path clip-path="url(#SVGID_7_)" fill="#FFFFFF" d="M54.321,422.766c0,1.07,0.155,2.124,1.204,2.124
											c0.938,0,1.262-0.757,1.262-1.667v-0.443h2.256l0.005,0.443c0,2.089-1.251,3.441-3.521,3.441
											c-3.065,0-3.604-1.897-3.689-4.938l-0.004-0.307c0.021-3.641,0.276-5.976,3.685-5.976c2.271,0,3.521,1.353,3.521,3.438
											l-0.007,0.451h-2.26v-0.451c0-0.911-0.316-1.667-1.267-1.667c-1.049,0-1.195,1.061-1.195,2.125L54.321,422.766z"/>
									</g>
								</g>
							</g>
						</g>
					</g>
				</g>
			</g>
		</g>
		<g>
			<g>
				<g>
					<g>
						<g>
							<g>
								<g>
									<g>
										<defs>
											<rect id="SVGID_8_" x="0.709" y="407.861" width="69" height="24.502"/>
										</defs>
										<clipPath id="SVGID_9_">
											<use xlink:href="#SVGID_8_"  overflow="visible"/>
										</clipPath>
										<path clip-path="url(#SVGID_9_)" fill="#FFFFFF" d="M47.938,412.758l2.382-0.004v11.763l1.262,0.734v1.319
											c0,0-1.597,0.103-2.493-0.202c-0.527-0.188-1.146-0.744-1.146-2.354L47.938,412.758L47.938,412.758z"/>
									</g>
								</g>
							</g>
						</g>
					</g>
				</g>
			</g>
		</g>
		<g>
			<g>
				<g>
					<g>
						<g>
							<g>
								<g>
									<g>
										<defs>
											<rect id="SVGID_10_" x="0.709" y="407.861" width="69" height="24.502"/>
										</defs>
										<clipPath id="SVGID_11_">
											<use xlink:href="#SVGID_10_"  overflow="visible"/>
										</clipPath>
										<polygon clip-path="url(#SVGID_11_)" fill="#FFFFFF" points="60.073,412.754 62.468,412.754 62.468,419.672 
											63.031,419.672 65.042,415.569 67.594,415.569 64.827,420.608 68.116,426.523 65.483,426.542 62.883,421.491 
											62.455,421.491 62.449,426.523 60.073,426.523 										"/>
									</g>
								</g>
							</g>
						</g>
					</g>
				</g>
			</g>
		</g>
		<g>
			<g>
				<g>
					<g>
						<g>
							<g>
								<g>
									<g>
										<defs>
											<rect id="SVGID_12_" x="0.709" y="407.861" width="69" height="24.502"/>
										</defs>
										<clipPath id="SVGID_13_">
											<use xlink:href="#SVGID_12_"  overflow="visible"/>
										</clipPath>
										<path clip-path="url(#SVGID_13_)" fill="#FFFFFF" d="M43.386,415.443c-0.896,0-1.764,0.346-2.348,0.932
											c-0.586,0.586-0.935,1.409-0.999,2.387h2.083c0.13-0.717,0.488-1.27,1.264-1.27c0.816,0,1.062,0.499,1.062,1.229v0.992
											c-0.479,0.112-2.142,0.247-3.389,0.998c-0.616,0.375-1.417,1.231-1.417,2.969c0,2.019,1.225,2.831,2.45,2.938
											c1.213,0.103,1.842-0.281,2.31-0.963l0.22,0.882h2.084v-7.858C46.713,416.386,45.229,415.443,43.386,415.443
											 M44.423,423.227c0,0.896-0.799,1.615-1.521,1.615c-0.707,0-1.133-0.562-1.133-1.404c0-0.146,0.094-0.688,0.354-1.01
											c0.552-0.647,2.146-1.016,2.303-0.979L44.423,423.227L44.423,423.227z"/>
									</g>
								</g>
							</g>
						</g>
					</g>
				</g>
			</g>
		</g>
	</g>
</g>
<g>
	<g>
		<g>
			<g>
				<g>
					<g>
						<g>
							<g>
								<g>
									<defs>
										<rect id="SVGID_14_" x="0" y="446.184" width="133.869" height="16.476"/>
									</defs>
									<clipPath id="SVGID_15_">
										<use xlink:href="#SVGID_14_"  overflow="visible"/>
									</clipPath>
									<path clip-path="url(#SVGID_15_)" fill="#FFFFFF" d="M5.426,453.164h0.283v-0.073c0-1.306-0.515-1.787-1.684-1.787
										c-0.41,0-1.215,0.108-1.215,0.606v0.479H0.7v-0.968c0-1.7,2.397-1.878,3.347-1.878c3.04,0,3.938,1.591,3.938,3.632v3.403
										c0,0.25,0.146,0.391,0.396,0.391H9.1v1.918H7.053c-0.845,0-1.164-0.467-1.164-1.005c0-0.229,0.021-0.392,0.021-0.392H5.87
										c0,0-0.694,1.606-2.754,1.606c-1.629,0-3.115-1.02-3.115-2.849C0.002,453.398,3.939,453.164,5.426,453.164 M3.672,457.334
										c1.223,0,2.073-1.285,2.073-2.396v-0.218H5.353c-1.188,0-3.062,0.161-3.062,1.438
										C2.295,456.764,2.74,457.334,3.672,457.334"/>
								</g>
							</g>
						</g>
					</g>
				</g>
			</g>
		</g>
	</g>
	<g>
		<g>
			<g>
				<g>
					<g>
						<g>
							<g>
								<g>
									<defs>
										<rect id="SVGID_16_" x="0" y="446.184" width="133.869" height="16.476"/>
									</defs>
									<clipPath id="SVGID_17_">
										<use xlink:href="#SVGID_16_"  overflow="visible"/>
									</clipPath>
									<path clip-path="url(#SVGID_17_)" fill="#FFFFFF" d="M10.271,452.091c0-0.27-0.147-0.396-0.396-0.396H9.161v-1.935h2.091
										c0.811,0,1.2,0.375,1.2,1.021v0.271c0,0.197-0.036,0.395-0.036,0.395h0.036c0.396-0.771,1.378-1.896,3.225-1.896
										c2.022,0,3.188,1.061,3.188,3.478v3.562c0,0.249,0.146,0.396,0.395,0.396h0.719v1.916H17.81c-0.86,0-1.22-0.359-1.22-1.219
										v-4.188c0-1.115-0.282-1.865-1.435-1.865c-1.216,0-2.127,0.771-2.451,1.865c-0.124,0.372-0.178,0.786-0.178,1.215v4.188
										h-2.254v-6.805L10.271,452.091L10.271,452.091z"/>
								</g>
							</g>
						</g>
					</g>
				</g>
			</g>
		</g>
	</g>
	<g>
		<g>
			<g>
				<g>
					<g>
						<g>
							<g>
								<g>
									<defs>
										<rect id="SVGID_18_" x="0" y="446.184" width="133.869" height="16.476"/>
									</defs>
									<clipPath id="SVGID_19_">
										<use xlink:href="#SVGID_18_"  overflow="visible"/>
									</clipPath>
									<path clip-path="url(#SVGID_19_)" fill="#FFFFFF" d="M21.074,451.569h-1.182v-1.806h1.23v-2.487h2.225v2.487h2.07v1.806
										h-2.07v3.688c0,1.504,1.184,1.715,1.809,1.715c0.249,0,0.411-0.031,0.411-0.031v1.982c0,0-0.289,0.058-0.697,0.058
										c-1.278,0-3.799-0.371-3.799-3.438L21.074,451.569L21.074,451.569z"/>
								</g>
							</g>
						</g>
					</g>
				</g>
			</g>
		</g>
	</g>
	<g>
		<g>
			<g>
				<g>
					<g>
						<g>
							<g>
								<g>
									<defs>
										<rect id="SVGID_20_" x="0" y="446.184" width="133.869" height="16.476"/>
									</defs>
									<clipPath id="SVGID_21_">
										<use xlink:href="#SVGID_20_"  overflow="visible"/>
									</clipPath>
									<path clip-path="url(#SVGID_21_)" fill="#FFFFFF" d="M26.703,448.513c0-0.271-0.145-0.395-0.396-0.395H25.59v-1.938h2.166
										c0.846,0,1.223,0.375,1.223,1.199v3.205c0,0.446-0.036,0.771-0.036,0.771h0.036c0.427-0.882,1.557-1.812,3.131-1.812
										c2.04,0,3.188,1.054,3.188,3.472v3.564c0,0.249,0.146,0.391,0.396,0.391h0.716v1.917H34.24
										c-0.841,0-1.203-0.355-1.203-1.215v-4.188c0-1.115-0.303-1.865-1.448-1.865c-1.194,0-2.13,0.787-2.47,1.896
										c-0.109,0.356-0.144,0.755-0.144,1.186v4.188h-2.273L26.703,448.513L26.703,448.513z"/>
								</g>
							</g>
						</g>
					</g>
				</g>
			</g>
		</g>
	</g>
	<g>
		<g>
			<g>
				<g>
					<g>
						<g>
							<g>
								<g>
									<defs>
										<rect id="SVGID_22_" x="0" y="446.184" width="133.869" height="16.476"/>
									</defs>
									<clipPath id="SVGID_23_">
										<use xlink:href="#SVGID_22_"  overflow="visible"/>
									</clipPath>
									<path clip-path="url(#SVGID_23_)" fill="#FFFFFF" d="M37.649,452.091c0-0.27-0.146-0.396-0.396-0.396h-0.718v-1.935h2.076
										c0.808,0,1.215,0.345,1.215,1.11v0.537c0,0.341-0.033,0.564-0.033,0.564h0.033c0.411-1.307,1.507-2.344,2.903-2.344
										c0.19,0,0.408,0.034,0.408,0.034v2.238c0,0-0.232-0.037-0.561-0.037c-0.965,0-2.076,0.556-2.482,1.918
										c-0.123,0.446-0.193,0.948-0.193,1.479v3.617h-2.255L37.649,452.091L37.649,452.091z"/>
								</g>
							</g>
						</g>
					</g>
				</g>
			</g>
		</g>
	</g>
	<g>
		<g>
			<g>
				<g>
					<g>
						<g>
							<g>
								<g>
									<defs>
										<rect id="SVGID_24_" x="0" y="446.184" width="133.869" height="16.476"/>
									</defs>
									<clipPath id="SVGID_25_">
										<use xlink:href="#SVGID_24_"  overflow="visible"/>
									</clipPath>
									<path clip-path="url(#SVGID_25_)" fill="#FFFFFF" d="M48.413,449.551c2.792,0,5.011,1.988,5.011,4.78
										c0,2.809-2.22,4.779-5.011,4.779c-2.771,0-4.999-1.974-4.999-4.779C43.415,451.537,45.638,449.551,48.413,449.551
										 M48.413,457.174c1.481,0,2.721-1.146,2.721-2.843c0-1.684-1.235-2.846-2.721-2.846c-1.471,0-2.705,1.162-2.705,2.846
										C45.709,456.028,46.943,457.174,48.413,457.174"/>
								</g>
							</g>
						</g>
					</g>
				</g>
			</g>
		</g>
	</g>
	<g>
		<g>
			<g>
				<g>
					<g>
						<g>
							<g>
								<g>
									<defs>
										<rect id="SVGID_26_" x="0" y="446.184" width="133.869" height="16.476"/>
									</defs>
									<clipPath id="SVGID_27_">
										<use xlink:href="#SVGID_26_"  overflow="visible"/>
									</clipPath>
									<path clip-path="url(#SVGID_27_)" fill="#FFFFFF" d="M54.891,452.091c0-0.27-0.146-0.396-0.396-0.396h-0.72v-1.935H55.8
										c0.845,0,1.147,0.375,1.147,0.88v0.354h0.035c0,0,0.768-1.45,2.896-1.45c2.476,0,4.067,1.953,4.067,4.782
										c0,2.899-1.793,4.779-4.19,4.779c-1.806,0-2.609-1.196-2.609-1.196h-0.039c0,0,0.039,0.314,0.039,0.786v3.772h-2.254
										L54.891,452.091h-0.002l0,0H54.891z M59.347,457.195c1.251,0,2.308-1.023,2.308-2.831c0-1.735-0.928-2.865-2.272-2.865
										c-1.182,0-2.283,0.86-2.283,2.881C57.094,455.796,57.843,457.195,59.347,457.195"/>
								</g>
							</g>
						</g>
					</g>
				</g>
			</g>
		</g>
	</g>
	<g>
		<g>
			<g>
				<g>
					<g>
						<g>
							<g>
								<g>
									<defs>
										<rect id="SVGID_28_" x="0" y="446.184" width="133.869" height="16.476"/>
									</defs>
									<clipPath id="SVGID_29_">
										<use xlink:href="#SVGID_28_"  overflow="visible"/>
									</clipPath>
									<path clip-path="url(#SVGID_29_)" fill="#FFFFFF" d="M69.683,449.551c2.794,0,5.013,1.988,5.013,4.78
										c0,2.809-2.22,4.779-5.013,4.779c-2.777,0-4.997-1.974-4.997-4.779C64.686,451.537,66.906,449.551,69.683,449.551
										 M69.683,457.174c1.483,0,2.723-1.146,2.723-2.843c0-1.684-1.235-2.846-2.723-2.846c-1.473,0-2.705,1.162-2.705,2.846
										C66.978,456.028,68.215,457.174,69.683,457.174"/>
								</g>
							</g>
						</g>
					</g>
				</g>
			</g>
		</g>
	</g>
	<g>
		<g>
			<g>
				<g>
					<g>
						<g>
							<g>
								<g>
									<defs>
										<rect id="SVGID_30_" x="0" y="446.184" width="133.869" height="16.476"/>
									</defs>
									<clipPath id="SVGID_31_">
										<use xlink:href="#SVGID_30_"  overflow="visible"/>
									</clipPath>
									<path clip-path="url(#SVGID_31_)" fill="#FFFFFF" d="M76.036,447.759c0-0.249-0.146-0.395-0.396-0.395h-0.75v-1.059h1.27
										c0.771,0,1.091,0.321,1.091,1.097v10.042c0,0.268,0.146,0.395,0.396,0.395h0.75v1.054h-1.271
										c-0.769,0-1.09-0.318-1.09-1.089V447.759z"/>
								</g>
							</g>
						</g>
					</g>
				</g>
			</g>
		</g>
	</g>
	<g>
		<g>
			<g>
				<g>
					<g>
						<g>
							<g>
								<g>
									<defs>
										<rect id="SVGID_32_" x="0" y="446.184" width="133.869" height="16.476"/>
									</defs>
									<clipPath id="SVGID_33_">
										<use xlink:href="#SVGID_32_"  overflow="visible"/>
									</clipPath>
									<path clip-path="url(#SVGID_33_)" fill="#FFFFFF" d="M83.669,449.675c2.632,0,4.765,2.003,4.765,4.673
										c0,2.729-2.128,4.766-4.746,4.766c-2.63,0-4.765-2.037-4.765-4.766C78.924,451.678,81.053,449.675,83.669,449.675
										 M83.683,458.015c1.92,0,3.487-1.567,3.487-3.667c0-2.041-1.568-3.562-3.487-3.562c-1.937,0-3.513,1.521-3.513,3.562
										C80.176,456.441,81.75,458.015,83.683,458.015"/>
								</g>
							</g>
						</g>
					</g>
				</g>
			</g>
		</g>
	</g>
	<g>
		<g>
			<g>
				<g>
					<g>
						<g>
							<g>
								<g>
									<defs>
										<rect id="SVGID_34_" x="0" y="446.184" width="133.869" height="16.476"/>
									</defs>
									<clipPath id="SVGID_35_">
										<use xlink:href="#SVGID_34_"  overflow="visible"/>
									</clipPath>
									<path clip-path="url(#SVGID_35_)" fill="#FFFFFF" d="M93.359,449.675c2.421,0,2.992,1.54,2.992,1.54h0.04v-0.341
										c0-0.647,0.278-0.984,1.018-0.984h1.252v1.06h-0.734c-0.251,0-0.394,0.127-0.394,0.393v7.339
										c0,2.867-2.113,3.979-4.329,3.979c-1.021,0-2.062-0.272-2.938-0.723l0.47-1.021c0,0,1.104,0.63,2.435,0.63
										c1.754,0,3.148-0.823,3.148-2.829v-0.789c0-0.341,0.019-0.644,0.019-0.644h-0.036c-0.531,0.979-1.436,1.557-2.821,1.557
										c-2.42,0-4.018-1.915-4.018-4.619C89.46,451.518,90.942,449.675,93.359,449.675 M96.335,454.223
										c0-2.632-1.254-3.438-2.848-3.438c-1.755,0-2.774,1.271-2.774,3.422s1.164,3.546,2.938,3.546
										C95.081,457.75,96.335,456.872,96.335,454.223"/>
								</g>
							</g>
						</g>
					</g>
				</g>
			</g>
		</g>
	</g>
	<g>
		<g>
			<g>
				<g>
					<g>
						<g>
							<g>
								<g>
									<defs>
										<rect id="SVGID_36_" x="0" y="446.184" width="133.869" height="16.476"/>
									</defs>
									<clipPath id="SVGID_37_">
										<use xlink:href="#SVGID_36_"  overflow="visible"/>
									</clipPath>
									<path clip-path="url(#SVGID_37_)" fill="#FFFFFF" d="M100.474,451.34c0-0.249-0.146-0.393-0.397-0.393h-0.753v-1.06h1.272
										c0.771,0,1.091,0.322,1.091,1.095v6.464c0,0.269,0.144,0.395,0.396,0.395h0.756v1.054h-1.271
										c-0.772,0-1.093-0.318-1.093-1.089L100.474,451.34L100.474,451.34z M100.438,446.311h1.183v1.541h-1.183V446.311z"/>
								</g>
							</g>
						</g>
					</g>
				</g>
			</g>
		</g>
	</g>
	<g>
		<g>
			<g>
				<g>
					<g>
						<g>
							<g>
								<g>
									<defs>
										<rect id="SVGID_38_" x="0" y="446.184" width="133.869" height="16.476"/>
									</defs>
									<clipPath id="SVGID_39_">
										<use xlink:href="#SVGID_38_"  overflow="visible"/>
									</clipPath>
									<path clip-path="url(#SVGID_39_)" fill="#FFFFFF" d="M108.108,449.675c1.02,0,3.2,0.437,3.2,1.916v0.806h-1.146v-0.521
										c0-0.749-1.312-1.108-2.06-1.108c-1.937,0-3.488,1.446-3.488,3.64c0,2.219,1.627,3.597,3.521,3.597
										c1.847,0,2.898-1.273,2.898-1.273l0.57,0.915c0,0-1.216,1.474-3.523,1.474c-2.687,0-4.725-1.913-4.725-4.707
										C103.363,451.643,105.42,449.675,108.108,449.675"/>
								</g>
							</g>
						</g>
					</g>
				</g>
			</g>
		</g>
	</g>
	<g>
		<g>
			<g>
				<g>
					<g>
						<g>
							<g>
								<g>
									<defs>
										<rect id="SVGID_40_" x="0" y="446.184" width="133.869" height="16.476"/>
									</defs>
									<clipPath id="SVGID_41_">
										<use xlink:href="#SVGID_40_"  overflow="visible"/>
									</clipPath>
									<rect x="112.977" y="457.461" clip-path="url(#SVGID_41_)" fill="#FFFFFF" width="1.378" height="1.434"/>
								</g>
							</g>
						</g>
					</g>
				</g>
			</g>
		</g>
	</g>
	<g>
		<g>
			<g>
				<g>
					<g>
						<g>
							<g>
								<g>
									<defs>
										<rect id="SVGID_42_" x="0" y="446.184" width="133.869" height="16.476"/>
									</defs>
									<clipPath id="SVGID_43_">
										<use xlink:href="#SVGID_42_"  overflow="visible"/>
									</clipPath>
									<path clip-path="url(#SVGID_43_)" fill="#FFFFFF" d="M120.255,449.675c1.021,0,3.207,0.437,3.207,1.916v0.806h-1.146
										v-0.521c0-0.749-1.312-1.108-2.062-1.108c-1.931,0-3.485,1.446-3.485,3.64c0,2.219,1.626,3.597,3.521,3.597
										c1.846,0,2.903-1.273,2.903-1.273l0.57,0.915c0,0-1.221,1.474-3.524,1.474c-2.688,0-4.729-1.913-4.729-4.707
										C115.51,451.643,117.568,449.675,120.255,449.675"/>
								</g>
							</g>
						</g>
					</g>
				</g>
			</g>
		</g>
	</g>
	<g>
		<g>
			<g>
				<g>
					<g>
						<g>
							<g>
								<g>
									<defs>
										<rect id="SVGID_44_" x="0" y="446.184" width="133.869" height="16.476"/>
									</defs>
									<clipPath id="SVGID_45_">
										<use xlink:href="#SVGID_44_"  overflow="visible"/>
									</clipPath>
									<path clip-path="url(#SVGID_45_)" fill="#FFFFFF" d="M129.107,449.675c2.631,0,4.762,2.003,4.762,4.673
										c0,2.729-2.131,4.766-4.743,4.766c-2.635,0-4.759-2.037-4.759-4.766C124.367,451.678,126.492,449.675,129.107,449.675
										 M129.126,458.015c1.919,0,3.493-1.567,3.493-3.667c0-2.041-1.574-3.562-3.493-3.562c-1.932,0-3.508,1.521-3.508,3.562
										C125.618,456.441,127.193,458.015,129.126,458.015"/>
								</g>
							</g>
						</g>
					</g>
				</g>
			</g>
		</g>
	</g>
</g>
<g>
	<circle fill="none" stroke="#95BC0D" stroke-miterlimit="10" cx="14.95" cy="500.998" r="13.76"/>
	<g>
		<polygon fill="#95BC0D" points="12.536,506.634 19.083,500.998 12.536,495.361 		"/>
	</g>
</g>
<g>
	<circle fill="none" stroke="#F09200" stroke-width="2" stroke-miterlimit="10" cx="47.575" cy="500.998" r="13.76"/>
	<g>
		<polygon fill="#F09200" points="45.161,506.634 51.708,500.998 45.161,495.361 		"/>
	</g>
</g>
<g>
	<circle fill="none" stroke="#FFFFFF" stroke-width="2" stroke-miterlimit="10" cx="84.908" cy="500.998" r="13.76"/>
	<g>
		<polygon fill="#FFFFFF" points="82.494,506.634 89.041,500.998 82.494,495.361 		"/>
	</g>
</g>
</svg>
